<svg width="38" height="38" fill="none" xmlns="http://www.w3.org/2000/svg"><circle cx="19" cy="19" r="18.5" stroke="#555"/><path d="M11.983 24h-1.271v-8.429l-2.55.937v-1.149L11.785 14h.198v10zm9.742-7.355c0 .496-.133.938-.397 1.326-.26.387-.613.69-1.06.909.52.223.93.549 1.231.977.305.429.458.914.458 1.457 0 .86-.292 1.547-.875 2.057-.579.51-1.342.766-2.29.766-.957 0-1.725-.256-2.304-.766-.574-.515-.861-1.2-.861-2.057 0-.538.146-1.024.437-1.457a2.767 2.767 0 011.224-.984 2.608 2.608 0 01-1.046-.91 2.344 2.344 0 01-.383-1.319c0-.838.27-1.503.807-1.996.538-.492 1.246-.738 2.126-.738.875 0 1.581.246 2.12.738.541.493.813 1.158.813 1.997zm-1.033 4.641c0-.556-.177-1.01-.533-1.36-.35-.351-.811-.527-1.38-.527-.57 0-1.028.174-1.375.52-.341.346-.512.802-.512 1.367s.166 1.01.499 1.333c.337.324.804.486 1.401.486.592 0 1.057-.162 1.394-.486.338-.328.506-.772.506-1.333zm-1.9-6.337c-.497 0-.9.155-1.21.465-.305.305-.458.722-.458 1.251 0 .506.15.916.451 1.23.306.31.711.465 1.217.465.506 0 .91-.155 1.21-.465.305-.314.458-.724.458-1.23s-.157-.918-.472-1.237c-.314-.32-.713-.479-1.196-.479zm8.51 3.712h2.776v1.196h-2.775v3.145H26.03v-3.145h-2.775v-1.196h2.775v-2.905h1.272v2.905z" fill="#555"/></svg>