<svg width="98" height="83" fill="none" xmlns="http://www.w3.org/2000/svg"><path d="M39.588 5.463c0 .505 1.767 3.155 5.302 7.952A6196.546 6196.546 0 0057.385 31.59c5.05 7.069 10.477 14.894 16.283 23.477A1193.141 1193.141 0 0189.193 79.68c.504 1.262 1.514 2.02 3.029 2.272 1.262.252 2.398.379 3.408.379 1.01 0 1.514-.253 1.514-.758-.252-.757-.883-2.398-1.893-4.922-1.262-2.777-2.65-6.059-4.165-9.846-1.767-3.786-3.534-7.951-5.301-12.495a311.926 311.926 0 00-5.68-13.632c-4.544-10.855-9.34-23.098-14.39-36.73-.757-.757-2.65-1.514-5.68-2.272C56.756.92 53.347.54 49.813.54c-2.777 0-5.175.38-7.194 1.136-2.02.505-3.03 1.767-3.03 3.787zm-38.623 0c0 .505 1.767 3.155 5.302 7.952A6177.986 6177.986 0 0018.762 31.59c5.049 7.069 10.476 14.894 16.282 23.477A1192.288 1192.288 0 0150.57 79.68c.504 1.262 1.514 2.02 3.029 2.272 1.262.252 2.398.379 3.408.379 1.01 0 1.514-.253 1.514-.758-.252-.757-.883-2.398-1.893-4.922-1.262-2.777-2.65-6.059-4.165-9.846-1.767-3.786-3.534-7.951-5.301-12.495a312.052 312.052 0 00-5.68-13.632c-4.544-10.855-9.34-23.098-14.39-36.73-.757-.757-2.65-1.514-5.68-2.272C18.133.92 14.724.54 11.19.54c-2.777 0-5.175.38-7.194 1.136-2.02.505-3.03 1.767-3.03 3.787z" fill="#000" fill-opacity=".04"/></svg>