<svg width="135" height="49" fill="none" xmlns="http://www.w3.org/2000/svg"><path d="M75.047 19.172a.77.77 0 01.564.237.77.77 0 01.237.563v1.067a.77.77 0 01-.237.564.77.77 0 01-.564.237H61.236a.77.77 0 01-.563-.237.77.77 0 01-.237-.564v-1.067c0-.257.06-.464.178-.622.118-.178.207-.316.267-.415L71.876 3.759H61.532a.77.77 0 01-.563-.237.77.77 0 01-.238-.563V1.892a.77.77 0 01.238-.563.77.77 0 01.563-.237h13.22a.77.77 0 01.562.237.77.77 0 01.237.563V2.96c0 .217-.04.405-.118.563a4.871 4.871 0 01-.267.415L64.11 19.172h10.938zm17.152-2.015H81.914l-1.541 3.942c-.06.158-.169.326-.327.504-.158.158-.434.237-.83.237H78.12a.708.708 0 01-.474-.178.709.709 0 01-.178-.474c0-.1.04-.237.118-.415L84.848 2.07c.099-.217.247-.435.445-.652.197-.218.494-.326.889-.326h1.778c.396 0 .692.108.89.326.197.217.345.435.444.652l7.232 18.703c.08.178.119.316.119.415 0 .178-.07.335-.208.474a.604.604 0 01-.444.178h-1.097c-.395 0-.672-.08-.83-.237a1.662 1.662 0 01-.326-.504l-1.54-3.942zm-9.248-2.668h8.21l-4.09-10.581-4.12 10.581zm22.955 6.551a.767.767 0 01-.238.563.768.768 0 01-.563.237h-1.215a.77.77 0 01-.563-.237.77.77 0 01-.237-.564v-6.935L96.006 2.159c-.099-.178-.148-.316-.148-.415 0-.178.059-.326.177-.445a.653.653 0 01.475-.207h1.274c.395 0 .672.079.83.237.178.158.316.326.415.504l5.454 9.425 5.483-9.425c.099-.178.227-.346.386-.504.177-.158.464-.237.859-.237h1.275a.56.56 0 01.444.207.56.56 0 01.208.445c0 .099-.05.237-.148.415l-7.084 11.945v6.935zm19.875-7.41l5.988-11.59a2.48 2.48 0 01.474-.652c.217-.197.494-.296.83-.296h1.126a.77.77 0 01.563.237.77.77 0 01.237.563V21.04a.77.77 0 01-.237.564.77.77 0 01-.563.237h-1.215a.77.77 0 01-.563-.237.77.77 0 01-.237-.564V6.99l-4.624 8.922a2.987 2.987 0 01-.504.711c-.178.158-.415.237-.711.237h-1.127c-.296 0-.533-.079-.711-.237a2.987 2.987 0 01-.504-.711l-4.624-8.922v14.05a.77.77 0 01-.237.563.77.77 0 01-.563.237h-1.215a.768.768 0 01-.563-.237.767.767 0 01-.238-.564V1.892c0-.217.079-.405.238-.563a.768.768 0 01.563-.237h1.126c.336 0 .603.099.8.296.218.198.386.415.504.652l5.987 11.59zM62.174 48.672c-.366 0-.549-.183-.549-.55V31.775c0-.383.183-.574.55-.574h6.514c.865 0 1.614.125 2.246.374.632.233 1.156.558 1.572.973.416.417.716.89.9 1.423.199.533.299 1.099.299 1.697 0 .533-.067 1.007-.2 1.423a4.195 4.195 0 01-.524 1.098 3.74 3.74 0 01-.724.8c-.25.199-.5.357-.749.473.333.167.65.383.949.65.316.266.59.582.823.948.233.366.416.774.55 1.223.15.45.224.932.224 1.448 0 .632-.117 1.248-.35 1.847a4.694 4.694 0 01-.973 1.572c-.433.466-.973.84-1.622 1.123-.65.267-1.398.4-2.247.4h-6.689zm1.023-15.975v6.09h5.167c1.248 0 2.188-.266 2.82-.798.633-.55.95-1.323.95-2.322 0-1.98-1.257-2.97-3.77-2.97h-5.167zm0 7.588v6.889h5.417c1.248 0 2.205-.325 2.87-.973.666-.65.999-1.473.999-2.471 0-1.015-.333-1.84-.999-2.471-.665-.65-1.622-.974-2.87-.974h-5.417zm25.218 6.889c.383 0 .574.191.574.574v.375c0 .366-.191.549-.574.549H78.48c-.366 0-.55-.183-.55-.55V31.775c0-.383.184-.574.55-.574h9.734c.383 0 .574.191.574.574v.374c0 .366-.191.55-.574.55h-8.71v6.364h8.161c.383 0 .574.191.574.574v.374c0 .367-.191.55-.574.55h-8.162v6.614h8.91zM99.068 31.2c1.747 0 3.136.416 4.168 1.248 1.048.832 1.572 2.096 1.572 3.794 0 1.347-.332 2.42-.998 3.22-.649.781-1.572 1.314-2.77 1.597l4.018 6.839c.05.1.075.191.075.274 0 .134-.05.25-.15.35-.1.1-.216.15-.349.15h-.3c-.283 0-.491-.067-.624-.2a2.661 2.661 0 01-.324-.474l-3.969-6.715h-5.142v6.84c0 .366-.19.549-.574.549h-.449c-.366 0-.549-.183-.549-.55V31.775c0-.383.183-.574.55-.574h5.815zm-4.793 8.586h4.668c2.862 0 4.293-1.181 4.293-3.544s-1.431-3.545-4.293-3.545h-4.668v7.089zm25.526-8.012c0-.383.191-.574.574-.574h.449c.366 0 .549.191.549.574v10.133c0 2.43-.557 4.21-1.672 5.342-1.115 1.115-2.696 1.672-4.743 1.672-1.015 0-1.922-.133-2.72-.4a5.175 5.175 0 01-2.022-1.272c-.549-.583-.973-1.315-1.273-2.197-.283-.882-.424-1.93-.424-3.145V31.774c0-.383.183-.574.549-.574h.449c.383 0 .574.191.574.574v10.208c0 1.88.433 3.262 1.298 4.144.882.865 2.072 1.298 3.569 1.298 1.498 0 2.679-.433 3.545-1.298.865-.882 1.298-2.263 1.298-4.144V31.774z" fill="#fff"/><path d="M0 2.496A2.496 2.496 0 012.496 0h43.68a2.496 2.496 0 012.496 2.496v43.68a2.496 2.496 0 01-2.496 2.496H2.496A2.496 2.496 0 010 46.176V2.496z" fill="#FF8A1D"/><path d="M21.675 30.997c.194 0 .362.07.504.212.141.142.212.31.212.504v.955c0 .194-.07.362-.212.504a.689.689 0 01-.504.212H9.317a.688.688 0 01-.504-.212.689.689 0 01-.212-.504v-.955c0-.23.053-.416.159-.557.106-.16.185-.283.238-.371l9.84-13.578H9.581a.688.688 0 01-.504-.213.688.688 0 01-.212-.503v-.955c0-.195.07-.363.212-.504a.688.688 0 01.504-.212H21.41c.194 0 .362.07.504.212a.69.69 0 01.212.504v.955c0 .194-.036.362-.106.503a4.36 4.36 0 01-.239.372l-9.892 13.63h9.786zm6.541-6.047v6.047h5.41c.584 0 1.096-.08 1.538-.239.46-.159.84-.38 1.14-.663.301-.283.522-.6.664-.954a2.75 2.75 0 00.238-1.14c0-.39-.07-.77-.212-1.141a2.611 2.611 0 00-.663-.981c-.283-.283-.654-.504-1.114-.663-.442-.177-.972-.266-1.59-.266h-5.41zm0-7.743v5.357h5.039c1.184 0 2.069-.23 2.652-.69.601-.46.902-1.123.902-1.989 0-.866-.301-1.53-.902-1.989-.583-.46-1.467-.69-2.652-.69h-5.039zm-1.803 16.177a.689.689 0 01-.504-.212.689.689 0 01-.212-.504V15.536c0-.195.07-.363.212-.504a.688.688 0 01.504-.212h7.107c1.132 0 2.069.177 2.811.53.743.336 1.335.76 1.777 1.273a4.28 4.28 0 01.928 1.618c.195.583.292 1.105.292 1.565 0 .583-.088 1.096-.265 1.538a4.183 4.183 0 01-.637 1.113c-.23.301-.468.54-.716.717-.23.176-.398.3-.504.37.672.46 1.256 1.07 1.75 1.83.513.743.77 1.618.77 2.626 0 .672-.124 1.326-.371 1.963a5.157 5.157 0 01-1.114 1.723c-.478.513-1.088.929-1.83 1.247-.725.3-1.565.45-2.52.45h-7.478z" fill="#fff"/><path fill-rule="evenodd" clip-rule="evenodd" d="M54.6 0c.345 0 .625.28.625.624v47.424a.624.624 0 11-1.248 0V.624c0-.345.279-.624.624-.624z" fill="#fff"/></svg>