<svg width="48" height="34" fill="none" xmlns="http://www.w3.org/2000/svg"><g clip-path="url(#clip0)"><path d="M8.735 33.925v-2.257c0-.865-.577-1.429-1.565-1.429-.495 0-1.03.15-1.401.64-.289-.414-.7-.64-1.319-.64-.412 0-.824.113-1.153.527v-.451H2.43v3.61h.866v-1.993c0-.64.37-.94.947-.94s.866.338.866.94v1.993h.865v-1.993c0-.64.412-.94.947-.94.577 0 .866.338.866.94v1.993h.947zm12.814-3.61h-1.4v-1.091h-.866v1.09H18.5v.715h.783v1.655c0 .827.37 1.316 1.36 1.316.37 0 .782-.112 1.07-.263l-.246-.677c-.248.15-.536.188-.742.188-.412 0-.577-.226-.577-.602V31.03h1.401v-.715zm7.334-.076c-.494 0-.824.226-1.03.527v-.451h-.865v3.61h.865v-2.03c0-.603.288-.941.824-.941.165 0 .37.037.535.075l.248-.752c-.165-.038-.412-.038-.577-.038zm-11.083.376c-.412-.263-.99-.376-1.607-.376-.99 0-1.648.452-1.648 1.166 0 .602.494.94 1.36 1.053l.411.038c.454.075.7.188.7.376 0 .263-.329.451-.906.451-.576 0-1.03-.188-1.318-.376l-.412.602c.453.3 1.071.451 1.69.451 1.153 0 1.812-.489 1.812-1.166 0-.639-.536-.978-1.36-1.09l-.412-.038c-.37-.038-.659-.113-.659-.338 0-.264.288-.414.742-.414.494 0 .989.188 1.236.3l.37-.639zm22.99-.376c-.494 0-.824.226-1.03.527v-.451h-.865v3.61h.865v-2.03c0-.603.289-.941.824-.941.165 0 .371.037.536.075l.247-.752c-.165-.038-.412-.038-.577-.038zm-11.042 1.88c0 1.092.824 1.881 2.101 1.881.577 0 .99-.112 1.401-.413l-.412-.64c-.33.226-.659.339-1.03.339-.7 0-1.195-.452-1.195-1.166 0-.677.495-1.129 1.195-1.166.371 0 .7.113 1.03.338l.412-.64c-.412-.3-.824-.413-1.4-.413-1.278 0-2.102.79-2.102 1.88zm7.993 0v-1.805h-.865v.452c-.288-.339-.7-.527-1.236-.527-1.112 0-1.978.79-1.978 1.88 0 1.092.866 1.881 1.978 1.881.577 0 .989-.188 1.236-.526v.451h.865V32.12zm-3.172 0c0-.639.453-1.165 1.195-1.165.7 0 1.194.489 1.194 1.166 0 .64-.494 1.166-1.194 1.166-.742-.038-1.195-.527-1.195-1.166zm-10.342-1.88c-1.154 0-1.978.752-1.978 1.88 0 1.13.825 1.881 2.02 1.881.576 0 1.153-.15 1.606-.489l-.412-.564a2.09 2.09 0 01-1.154.376c-.535 0-1.07-.225-1.194-.865h2.925v-.3c.041-1.167-.7-1.919-1.813-1.919zm0 .677c.536 0 .907.301.989.865h-2.06c.082-.489.453-.865 1.071-.865zm21.466 1.204v-3.235h-.865v1.88c-.289-.338-.7-.526-1.236-.526-1.112 0-1.978.79-1.978 1.88 0 1.092.866 1.881 1.978 1.881.577 0 .989-.188 1.236-.526v.451h.865V32.12zm-3.172 0c0-.64.453-1.166 1.194-1.166.7 0 1.195.489 1.195 1.166 0 .64-.494 1.166-1.194 1.166-.742-.038-1.195-.527-1.195-1.166zm-28.924 0v-1.805h-.865v.45c-.289-.338-.7-.526-1.236-.526-1.113 0-1.978.79-1.978 1.88 0 1.092.865 1.881 1.978 1.881.577 0 .989-.188 1.236-.526v.451h.865V32.12zm-3.214 0c0-.64.454-1.166 1.195-1.166.7 0 1.195.489 1.195 1.166 0 .64-.494 1.166-1.195 1.166-.742-.038-1.195-.527-1.195-1.166z" fill="#000"/><path d="M30.489 2.896H17.51v21.288h12.98V2.896z" fill="#FF5F00"/><path d="M18.335 13.54c0-4.325 2.225-8.162 5.644-10.644C21.466 1.091 18.294 0 14.833 0 6.633 0 0 6.055 0 13.54c0 7.484 6.633 13.54 14.833 13.54 3.46 0 6.633-1.091 9.146-2.896-3.42-2.445-5.644-6.319-5.644-10.644z" fill="#EB001B"/><path d="M48 13.54c0 7.484-6.633 13.54-14.833 13.54-3.46 0-6.633-1.091-9.146-2.896 3.46-2.483 5.644-6.319 5.644-10.644s-2.224-8.162-5.644-10.644C26.534 1.091 29.707 0 33.167 0 41.367 0 48 6.093 48 13.54z" fill="#F79E1B"/></g><defs><clipPath id="clip0"><path fill="#fff" d="M0 0h48v34H0z"/></clipPath></defs></svg>