<svg width="82" height="23" fill="none" xmlns="http://www.w3.org/2000/svg"><path fill-rule="evenodd" clip-rule="evenodd" d="M22.096 0v.01c-.01 0-3.203-.01-4.054 3.013a3229.47 3229.47 0 01-3.04 10.636h-.609s-2.25-7.824-3.04-10.646C10.5-.01 7.297 0 7.297 0H0v23h7.298V9.34h.608L12.163 23h5.068l4.257-13.65h.608V23h7.298V0h-7.298zm26.659 0s-2.139.19-3.143 2.41l-5.169 11.25h-.608V0h-7.298v23h6.893s2.24-.2 3.243-2.41l5.068-11.25h.608V23h7.298V0h-6.892zM58.89 10.445V23h7.297v-7.332h7.906a7.892 7.892 0 007.45-5.223H58.89z" fill="#4DB45E"/><path fill-rule="evenodd" clip-rule="evenodd" d="M74.092 0H57.864c.811 4.379 4.126 7.894 8.413 9.04.973.26 1.997.401 3.051.401h12.508a7.651 7.651 0 00.162-1.607C81.998 3.505 78.46 0 74.092 0z" fill="url(#paint0_linear)"/><defs><linearGradient id="paint0_linear" x1="57.866" y1="4.721" x2="81.998" y2="4.721" gradientUnits="userSpaceOnUse"><stop offset=".3" stop-color="#00B4E6"/><stop offset="1" stop-color="#088CCB"/></linearGradient></defs></svg>