<svg width="47" height="40" fill="none" xmlns="http://www.w3.org/2000/svg"><path d="M2.015 15.228l3.681-1.472.297 1.54H1.966l.05-.068zm13.7.067h-3.358l.159-.375 2.902-1.16.296 1.535z" stroke="#256B81" stroke-width="2"/><mask id="a" fill="#fff"><path d="M4.989 31.871a5.388 5.388 0 013.63 3.641.9.9 0 00.861.645.81.81 0 00.138-.02c.04.01.082.02.124.024h21.58a.763.763 0 00.11-.022.837.837 0 001.01-.618l.002-.005a5.387 5.387 0 013.63-3.646.892.892 0 00.617-.993.92.92 0 00.026-.133V23.52a.822.822 0 00-.027-.134.89.89 0 00-.617-.993 5.382 5.382 0 01-3.628-3.647.888.888 0 00-.997-.62.853.853 0 00-.126-.024H9.742a.838.838 0 00-.134.027.888.888 0 00-.99.62 5.388 5.388 0 01-3.63 3.644.891.891 0 00-.616.993.916.916 0 00-.025.134v7.224a.836.836 0 00.025.125c-.074.442.19.87.617 1.002zm1.156-7.985a7.15 7.15 0 003.962-3.979h20.849a7.152 7.152 0 003.962 3.98v6.49a7.16 7.16 0 00-3.961 3.978h-20.85a7.159 7.159 0 00-3.962-3.978v-6.49z"/></mask><path d="M4.989 31.871l-.59 1.912.01.003.01.003.57-1.918zm3.63 3.641L6.7 36.08v.003l1.918-.57zm.861.645v2h.063l.063-.004-.126-1.996zm.138-.02l.55-1.924-.504-.144-.509.121.463 1.946zm.124.024l-.253 1.984.126.016h.127v-2zm21.58 0v2h.13l.13-.017-.26-1.983zm.11-.022l.474-1.943-.512-.125-.506.143.543 1.925zm1.01-.618l1.944.47.01-.04.008-.04-1.961-.39zm.002-.005l-1.919-.565-.025.086-.018.088 1.962.39zm3.63-3.646l.57 1.918.008-.003.009-.003-.587-1.912zm.617-.993l-1.929-.53-.115.418.069.427 1.975-.315zm.026-.133l1.986.237.014-.119v-.118h-2zm0-7.224h2v-.117l-.014-.115-1.986.232zm-.027-.134l-1.975-.317-.071.444.125.431 1.92-.558zm-.617-.993l.585-1.913-.008-.002-.008-.003-.57 1.918zm-3.628-3.647l1.919-.563-.003-.01-.003-.008-1.913.581zm-.997-.62l-.538 1.927.43.12.44-.074-.332-1.972zm-.126-.024l.24-1.986-.12-.014h-.12v2zm-21.58 0v-2h-.12l-.118.014.238 1.986zm-.134.027l-.316 1.974.44.071.43-.124-.554-1.921zm-.99.62l-1.912-.585-.003.01-.003.009 1.919.565zm-3.63 3.644l-.569-1.918-.009.003-.008.003.587 1.912zm-.616.993l1.933.514.109-.41-.067-.419-1.975.315zm-.025.134l-1.988-.223-.012.11v.113h2zm0 7.224h-2v.12l.014.121 1.986-.241zm.025.125l1.973.329.073-.441-.121-.43-1.925.542zm1.773-6.983l-.748-1.855-1.252.505v1.35h2zm3.962-3.979v-2H8.753l-.503 1.258 1.857.742zm20.849 0l1.857-.742-.503-1.258h-1.354v2zm3.962 3.98h2v-1.35l-1.252-.506-.748 1.855zm0 6.49l.75 1.854 1.25-.505v-1.35h-2zm-3.961 3.978v2h1.353l.503-1.256-1.856-.744zm-20.85 0L8.25 35.1l.503 1.256h1.354v-2zm-3.962-3.978h-2v1.349l1.251.505.749-1.854zM4.42 33.789a3.388 3.388 0 012.28 2.29l3.837-1.134a7.387 7.387 0 00-4.98-4.991L4.42 33.789zm2.28 2.293a2.9 2.9 0 002.778 2.075l.002-4a1.1 1.1 0 011.055.786L6.7 36.082zm2.905 2.07c.162-.01.322-.034.476-.07l-.927-3.892c.063-.014.13-.025.2-.03l.25 3.993zm-.536-.093c.137.04.277.068.419.086l.506-3.968c.058.008.116.02.172.036L9.07 38.059zm.672.102h21.58v-4H9.742v4zm21.84-.017c.133-.017.265-.044.393-.08l-1.087-3.85c.056-.016.114-.028.174-.036l.52 3.967zm-.625-.062a2.837 2.837 0 003.43-2.09l-3.888-.942a1.163 1.163 0 011.407-.854l-.95 3.886zm3.447-2.17a2.23 2.23 0 01-.012.056l-.003.014-.001.004v-.001l.001-.004.004-.016.012-.059-3.923-.78a2.23 2.23 0 01.012-.057l.004-.014v-.005.006l-.004.015a1.607 1.607 0 00-.013.06l3.923.78zm-.042.169a3.387 3.387 0 012.281-2.293l-1.139-3.835a7.387 7.387 0 00-4.979 4.998l3.837 1.13zm2.299-2.299a2.891 2.891 0 002.005-3.22l-3.95.63a1.109 1.109 0 01.77-1.234l1.175 3.824zm1.958-2.375c.04-.143.067-.285.084-.426l-3.972-.475a1.08 1.08 0 01.031-.159l3.857 1.06zm.098-.663V23.52h-4v7.224h4zm-.014-7.456a2.819 2.819 0 00-.093-.46l-3.84 1.116a1.19 1.19 0 01-.04-.193l3.973-.463zm-.039.415a2.89 2.89 0 00-2.006-3.223l-1.17 3.825a1.11 1.11 0 01-.773-1.236l3.95.634zm-2.022-3.228a3.382 3.382 0 01-2.278-2.292l-3.838 1.127a7.382 7.382 0 004.977 5l1.14-3.835zm-2.284-2.31a2.888 2.888 0 00-3.241-2.01l.663 3.944a1.112 1.112 0 01-1.249-.771l3.827-1.163zm-2.37-1.965a2.853 2.853 0 00-.425-.085l-.481 3.971a1.151 1.151 0 01-.171-.034l1.077-3.852zm-.665-.1H9.742v4h21.58v-4zm-21.818.015c-.15.018-.301.048-.45.091l1.108 3.843a1.12 1.12 0 01-.183.037l-.475-3.971zm.42.038a2.888 2.888 0 00-3.218 2.01l3.825 1.168c-.16.524-.685.86-1.24.771l.633-3.95zM6.7 18.183a3.388 3.388 0 01-2.28 2.292l1.138 3.835a7.388 7.388 0 004.979-4.996L6.7 18.183zM4.402 20.48a2.892 2.892 0 00-2.005 3.22l3.95-.63a1.108 1.108 0 01-.771 1.233L4.402 20.48zm-1.963 2.39a2.86 2.86 0 00-.08.426l3.975.445a1.087 1.087 0 01-.03.158L2.44 22.871zm-.092.649v7.224h4V23.52h-4zm.014 7.465c.018.145.047.287.086.426l3.85-1.084c.016.057.028.115.035.175l-3.97.483zm.038-.445a2.894 2.894 0 002 3.243l1.179-3.823c.536.165.857.698.767 1.238l-3.946-.658zm4.494-4.8a9.15 9.15 0 005.07-5.09L8.25 19.165a5.15 5.15 0 01-2.853 2.866l1.496 3.71zm3.214-3.832h20.849v-4h-20.85v4zm18.992-1.258a9.153 9.153 0 005.071 5.091l1.496-3.71a5.152 5.152 0 01-2.853-2.866l-3.714 1.486zm3.82 3.236v6.49h4v-6.49h-4zm1.25 4.636a9.158 9.158 0 00-5.069 5.09l3.713 1.487a5.159 5.159 0 012.854-2.868l-1.498-3.709zm-3.212 3.833h-20.85v4h20.85v-4zm-18.994 1.257a9.159 9.159 0 00-5.069-5.09l-1.498 3.71a5.158 5.158 0 012.854 2.867l3.713-1.487zm-3.818-3.235v-6.49h-4v6.49h4z" fill="#256B81" mask="url(#a)"/><mask id="b" fill="#fff"><path d="M20.532 32.55c2.98 0 5.395-2.426 5.395-5.419 0-2.992-2.416-5.418-5.395-5.418-2.98 0-5.395 2.426-5.395 5.418.003 2.991 2.416 5.415 5.395 5.418zm0-9.03a3.604 3.604 0 013.596 3.611 3.604 3.604 0 01-3.596 3.612 3.604 3.604 0 01-3.597-3.612 3.604 3.604 0 013.597-3.612z"/></mask><path d="M20.532 32.55l-.002 2h.002v-2zm-5.395-5.419h-2v.002l2-.002zm5.395 7.418c4.092 0 7.395-3.329 7.395-7.418h-4a3.406 3.406 0 01-3.395 3.418v4zm7.395-7.418c0-4.088-3.303-7.418-7.395-7.418v4a3.406 3.406 0 013.395 3.418h4zm-7.395-7.418c-4.093 0-7.395 3.33-7.395 7.418h4a3.406 3.406 0 013.395-3.418v-4zm-7.395 7.42c.004 4.086 3.303 7.412 7.393 7.416l.004-4a3.412 3.412 0 01-3.397-3.42l-4 .004zm7.395-1.614c.873 0 1.596.714 1.596 1.612h4c0-3.091-2.497-5.612-5.596-5.612v4zm1.596 1.612c0 .899-.723 1.612-1.596 1.612v4c3.099 0 5.596-2.52 5.596-5.612h-4zm-1.596 1.612a1.604 1.604 0 01-1.597-1.612h-4c0 3.092 2.498 5.612 5.597 5.612v-4zm-1.597-1.612c0-.898.723-1.612 1.597-1.612v-4c-3.1 0-5.597 2.521-5.597 5.612h4z" fill="#256B81" mask="url(#b)"/><mask id="c" fill="#fff"><path d="M10.64 28.486c.746 0 1.35-.607 1.35-1.355s-.604-1.354-1.35-1.354c-.744 0-1.348.606-1.348 1.354 0 .748.604 1.355 1.349 1.355zm0-1.806a.45.45 0 11-.001.901.45.45 0 01.002-.901z"/></mask><path d="M10.64 30.486a3.352 3.352 0 003.35-3.355h-4c0-.348.283-.645.65-.645v4zm3.35-3.355a3.352 3.352 0 00-3.35-3.354v4a.648.648 0 01-.65-.646h4zm-3.35-3.354a3.352 3.352 0 00-3.348 3.354h4a.648.648 0 01-.651.646v-4zM7.293 27.13a3.352 3.352 0 003.349 3.355v-4c.367 0 .651.297.651.645h-4zm3.349 1.549a1.55 1.55 0 01-1.55-1.549h4a2.45 2.45 0 00-2.45-2.451v4zM9.09 27.13a1.55 1.55 0 011.55-1.548v4a2.45 2.45 0 002.45-2.452h-4zm1.55-1.548c.864 0 1.55.701 1.55 1.548h-4a2.45 2.45 0 002.45 2.452v-4zm1.55 1.548a1.55 1.55 0 01-1.55 1.549v-4a2.45 2.45 0 00-2.45 2.451h4z" fill="#256B81" mask="url(#c)"/><mask id="d" fill="#fff"><path d="M30.422 28.486c.745 0 1.35-.607 1.35-1.355s-.605-1.354-1.35-1.354c-.744 0-1.348.606-1.348 1.354 0 .748.604 1.355 1.348 1.355zm0-1.806a.45.45 0 11-.001.901.45.45 0 01.002-.901z"/></mask><path d="M30.422 30.486a3.352 3.352 0 003.35-3.355h-4c0-.348.283-.645.65-.645v4zm3.35-3.355a3.352 3.352 0 00-3.35-3.354v4a.648.648 0 01-.65-.646h4zm-3.35-3.354a3.352 3.352 0 00-3.348 3.354h4a.648.648 0 01-.652.646v-4zm-3.348 3.354a3.352 3.352 0 003.348 3.355v-4c.368 0 .652.297.652.645h-4zm3.348 1.549a1.55 1.55 0 01-1.55-1.549h4a2.45 2.45 0 00-2.45-2.451v4zm-1.55-1.549a1.55 1.55 0 011.55-1.548v4a2.45 2.45 0 002.45-2.452h-4zm1.55-1.548c.865 0 1.55.701 1.55 1.548h-4a2.45 2.45 0 002.45 2.452v-4zm1.55 1.548a1.55 1.55 0 01-1.55 1.549v-4a2.45 2.45 0 00-2.45 2.451h4z" fill="#256B81" mask="url(#d)"/></svg>