<svg width="110" height="27" fill="none" xmlns="http://www.w3.org/2000/svg"><g clip-path="url(#clip0)"><path d="M42.172 7.904c1.45 0 2.99.477 4.053 1.522l-1.229 2c-.696-.606-1.742-1.1-2.695-1.1-2.164 0-3.044 1.522-3.044 3.081 0 1.596.972 3.247 3.044 3.247 1.063 0 2.127-.587 2.86-1.32l1.357 1.925a9.684 9.684 0 01-.458.44c-.935.77-2.2 1.376-3.888 1.376-3.465 0-5.665-2.403-5.665-5.595 0-3.173 2.328-5.576 5.666-5.576zm10.214 0c3.355 0 5.647 2.421 5.647 5.503 0 3.174-2.292 5.65-5.647 5.65-3.356 0-5.648-2.476-5.648-5.65.018-3.1 2.31-5.503 5.648-5.503zm0 8.732c1.705 0 2.915-1.395 2.915-3.229 0-1.761-1.21-3.1-2.915-3.1-1.706 0-2.916 1.32-2.916 3.1.019 1.853 1.21 3.229 2.916 3.229zm7.096-8.549h2.677l2.99 5.045c.42.715.898 1.834.898 1.834h.036s-.128-1.155-.128-1.834V8.087h2.64v10.787h-2.658l-3.008-5.027c-.421-.715-.898-1.834-.898-1.834h-.037s.129 1.156.129 1.834v5.027h-2.64V8.087zm14.011 2.257H70.21V8.087h9.205v2.257h-3.283v8.53h-2.64v-8.53zm9.277-2.257h2.768l3.667 10.787h-2.714l-.66-2.257h-3.374l-.641 2.257h-2.714l3.667-10.787zm2.438 6.402l-.605-2.09c-.202-.68-.44-1.853-.44-1.853h-.037s-.238 1.174-.44 1.852l-.624 2.091h2.146zm10.065-6.585c1.449 0 2.989.477 4.053 1.522l-1.23 2c-.696-.606-1.741-1.1-2.695-1.1-2.163 0-3.043 1.522-3.043 3.081 0 1.596.971 3.247 3.043 3.247 1.064 0 2.127-.587 2.86-1.32l1.358 1.925c-.954.972-2.366 1.816-4.346 1.816-3.465 0-5.666-2.403-5.666-5.595.019-3.173 2.329-5.576 5.666-5.576zm8.823 2.44h-3.283V8.087H110v2.257h-3.264v8.53h-2.64v-8.53z" fill="#2C3341"/><path d="M26.9 9.738c-.294-1.064-1.376-1.706-2.44-1.412-1.063.293-1.704 1.376-1.411 2.44.22.807.33 1.669.33 2.513 0 5.356-4.346 9.704-9.7 9.704a9.75 9.75 0 01-1.485-.11 5.06 5.06 0 10-6.18-4.934c0 .55.092 1.063.239 1.558a9.635 9.635 0 01-2.256-6.2 9.7 9.7 0 017.207-9.374 1.982 1.982 0 001.411-2.44A1.98 1.98 0 0010.177.072C4.18 1.65 0 7.097 0 13.316 0 20.873 6.143 27 13.679 27c7.554 0 13.679-6.145 13.679-13.684 0-1.23-.147-2.422-.459-3.578z" fill="#F58A1F"/><path d="M22.226 4.609a3.301 3.301 0 10-6.571-.652 3.301 3.301 0 006.57.652z" fill="#F58A1F"/></g><defs><clipPath id="clip0"><path fill="#fff" d="M0 0h110v27H0z"/></clipPath></defs></svg>