<svg width="21" height="12" fill="none" xmlns="http://www.w3.org/2000/svg"><rect width="21" height="12" rx="1" fill="#F15642"/><path d="M6.292 3.8c.364 0 .68.06.948.18.272.12.48.292.624.516.144.224.216.49.216.798 0 .304-.072.57-.216.798a1.38 1.38 0 01-.624.516c-.268.12-.584.18-.948.18h-.948V8h-.78V3.8h1.728zm-.036 2.328c.34 0 .598-.072.774-.216.176-.144.264-.35.264-.618s-.088-.474-.264-.618c-.176-.144-.434-.216-.774-.216h-.912v1.668h.912zM8.859 3.8h1.836c.448 0 .846.088 1.194.264.348.172.618.418.81.738.192.316.288.682.288 1.098 0 .416-.096.784-.288 1.104a1.958 1.958 0 01-.81.738A2.66 2.66 0 0110.695 8H8.859V3.8zm1.8 3.54c.308 0 .578-.058.81-.174.236-.12.416-.288.54-.504.128-.22.192-.474.192-.762 0-.288-.064-.54-.192-.756a1.221 1.221 0 00-.54-.504 1.74 1.74 0 00-.81-.18h-1.02v2.88h1.02zm3.937-2.886v1.278h2.028v.66h-2.028V8h-.78V3.8h3.066v.654h-2.286z" fill="#fff"/></svg>