<svg width="76" height="32" fill="none" xmlns="http://www.w3.org/2000/svg"><g clip-path="url(#clip0)"><path d="M30.733 30.89c-.145-.39-.407-.657-.597-1.003-.46-.595-1.003-1.11-1.546-1.625-.19-.062-.27-.24-.451-.31-.118-.152-.308-.232-.462-.347a9.188 9.188 0 00-.985-.622c-.65-.408-1.455-.665-2.25-.932a27.017 27.017 0 00-2.703-.48c-.931-.132-1.862-.257-2.567-.62-.407-.116-.705-.338-1.058-.516-.325-.213-.678-.39-.949-.657-.334-.195-.542-.524-.804-.79-.09-.178-.244-.284-.317-.48-.09-.035-.117-.142-.171-.204-.064-.07-.064-.213-.172-.24-.055.365-.036.8 0 1.173.045.16.063.355.108.515.027.142.163.373.109.479-2.82-.142-4.881-1.021-6.671-2.175-.886-.578-1.645-1.279-2.35-2.034-.308-.417-.642-.816-.913-1.278-.28-.453-.515-.968-.768-1.447-.416-1.04-.805-2.105-.95-3.41-.19-1.216-.144-2.77.136-3.898.1-.621.307-1.145.488-1.687.118-.249.244-.497.353-.755.153-.213.235-.506.424-.692.516-.95 1.284-1.66 2.07-2.344a8.79 8.79 0 012.983-1.412c1.121-.249 2.649-.293 3.86-.036 2.458.498 4.312 1.58 5.866 2.966 1.573 1.359 2.784 3.081 3.616 5.177.859 1.988 1.157 5.087.389 7.343a44.277 44.277 0 00-.95-.515c-.38-.107-.75-.231-1.193-.276-.533-.009-1.057 0-1.4.169.695-.071 1.256.115 1.69.275.253.098.397.16.596.275.389.222.732.427 1.021.729.823.71 1.41 1.651 1.69 2.894 0 .036.046.027.037-.035.036-.01.054-.036.072-.072.046-.053.1-.106.145-.168.09-.107.18-.213.244-.346.19-.222.343-.471.488-.729.335-.479.588-1.03.877-1.553a16.294 16.294 0 001.157-3.694c.506-3.037-.1-5.913-1.157-8.036-1.085-2.14-2.603-3.853-4.565-5.14-1.98-1.28-4.293-2.22-7.475-2.31-.018-.061-.045.01-.109 0-1.68-.052-3.037.179-4.383.516-.624.204-1.275.382-1.826.657-.633.204-1.14.542-1.718.79-.208.196-.524.293-.741.48-.28.133-.488.346-.768.48-.452.39-.931.736-1.374 1.136-.434.39-.814.834-1.23 1.243-.063.142-.171.24-.28.346a1.161 1.161 0 01-.28.346c-.045.16-.19.222-.244.382-.118.089-.145.266-.28.346-.118.284-.326.489-.461.755-.163.258-.29.542-.452.79-.253.577-.524 1.137-.732 1.758a12.146 12.146 0 00-.525 1.936c-.135.648-.262 1.492-.244 2.175-.09.249-.018.71 0 1.004 0 .053-.036.07-.036.106 0 .329.09.728.109.932.072.755.208 1.457.425 2.07.135.683.424 1.216.632 1.828.317.515.534 1.128.913 1.59.28.541.678.968 1.058 1.412.406.426.813.86 1.301 1.207.895.764 1.944 1.376 3.092 1.9 2.142 1.021 5.342 1.687 8.216 1.518.732-.097 1.474-.186 2.142-.346.615-.222 1.33-.355 2.07-.444 1.69-.106 3.155.045 4.457.418 1.32.346 2.458.87 3.443 1.553.525.302.959.693 1.402 1.066.451.382.813.852 1.229 1.279.054.16.163.275.244.417.108.115.054.382.316.346.163-.16-.027-.39-.036-.586-.163-.169-.199-.39-.325-.533z" fill="#FF8D00"/><path d="M24.17 21.443c-.035 0-.044.027-.071.035-.064.134-.037.347 0 .48.19.382.253.879.668 1.039.2-.062.181-.346.172-.622-.09-.337-.217-.64-.425-.861-.144-.053-.244-.142-.343-.071zm-2.458.968c0-.018-.027-.036-.036 0-.343-.045-.46.142-.633.275-.298.773.181 1.527 1.022 1.518.334-.08.542-.293.596-.657-.045-.648-.325-1.065-.949-1.136z" fill="#FCB316"/><path d="M41.977 19.951c.136.56.425.959.75 1.332.326.373.706.684 1.167.915.434.266.904.488 1.446.639.262.088.515.195.84.23.227.125.498.187.516.507-.01.381-.271.524-.606.595-.334-.071-.75-.063-1.03-.187-.705-.08-1.275-.302-1.871-.506a8.43 8.43 0 01-2.893-1.838c-.163-.266-.389-.48-.56-.737-.172-.257-.29-.568-.47-.826-1.392-.177-2.341-.799-3.173-1.518-.768-.861-1.383-1.891-1.636-3.258-.298-1.315-.208-2.957.145-4.227.768-2.46 2.377-4.093 5.414-4.315.84.026 1.573.124 2.242.373.677.24 1.32.683 1.825 1.145.046.036.064.045.09.089.11.15.371.364.516.55.027.036.018.098.045.143.054.08.136.115.19.186.027.044.018.098.045.133.036.053.082.133.136.231.018.036.081.062.09.089.082.15.118.337.19.506.072.178.172.328.235.506.18.524.298 1.145.37 1.785.181 1.846-.19 3.498-.885 4.723a5.09 5.09 0 01-1.31 1.607c-.489.506-1.158.808-1.818 1.128zm-2.241-11.56c-.407.026-.651.213-.985.32-.218.195-.489.345-.651.594-.272.151-.344.488-.56.684a8.375 8.375 0 00-.47 1.518 10.57 10.57 0 00-.19 1.838c-.01 1.58.334 3.152.976 4.084.38.453.84.826 1.4 1.101.326.027.58.134.932.142.198-.07.524 0 .65-.142.29.018.353-.168.606-.186.136-.133.28-.24.47-.32.172-.186.335-.373.515-.55.09-.133.145-.32.28-.418.814-1.527.904-4.324.371-6.1a5.383 5.383 0 00-.795-1.606 4.597 4.597 0 00-1.211-.87c-.371-.08-.724-.178-1.212-.134-.027 0-.054.01-.045.045h-.081zm9.861-1.288c.733.027 1.591-.062 2.242.045.145.221.09.488.09.736.055 3.366 0 6.98 0 10.416 0 .275.01.559 0 .825-.009.231.055.48-.09.693-.325.08-.795.044-1.211.044-.443 0-.877.062-1.166-.088a321.8 321.8 0 010-12.529c.018-.07.063-.115.135-.142zm5.605 0h2.196c.199.266.262.666.325 1.057.66 2.468 1.311 4.945 1.917 7.476.144.018.1-.151.144-.231.063-.062.027-.213.09-.275.028-.205.154-.311.145-.55.163-.312.217-.738.37-1.057.19-.746.444-1.439.66-2.158.209-.746.489-1.42.651-2.202.308-.63.38-1.492.75-2.06h.932c.334.622.46 1.447.75 2.113.19.746.452 1.421.65 2.158.462 1.43.94 2.841 1.357 4.315.19-.275.19-.737.325-1.056.081-.364.154-.737.28-1.057.362-1.456.705-2.921 1.121-4.315.154-.728.308-1.474.56-2.113a7.688 7.688 0 011.917 0c.045.541-.208 1.127-.37 1.607-.091.586-.308 1.038-.426 1.607-.334 1.039-.587 2.14-.93 3.17-.263 1.1-.615 2.113-.886 3.214-.181.506-.308 1.065-.47 1.607-.181.497-.245 1.11-.516 1.518h-1.31c-.335-.577-.452-1.358-.75-1.971-.651-2.024-1.374-3.969-2.007-6.011-.217.222-.217.675-.37.959-.1.346-.2.692-.326 1.012-.181.702-.452 1.296-.606 2.016-.262.63-.452 1.331-.65 2.024-.272.604-.371 1.376-.706 1.927-.343.106-.886.017-1.31.044-.326-.364-.362-1.02-.56-1.518-.154-.515-.263-1.083-.462-1.563-.253-1.119-.633-2.104-.886-3.214-.334-1.03-.623-2.104-.93-3.17-.172-.506-.299-1.048-.47-1.563-.082-.55-.462-1.047-.326-1.651.018-.044.072-.071.127-.089zm18.448 0c.732.027 1.582-.062 2.242.045.163.479.09.994.09 1.509v9.634c0 .523.063 1.03-.09 1.518-.506.053-1.248.08-1.871.044-.181-.009-.398.045-.516-.088-.162-.48-.09-.986-.09-1.519V8.71c0-.577-.054-1.136.09-1.518a.304.304 0 01.145-.089z" fill="#0269B3"/></g><defs><clipPath id="clip0"><path fill="#fff" d="M0 0h76v32H0z"/></clipPath></defs></svg>