<svg width="40" height="40" fill="none" xmlns="http://www.w3.org/2000/svg"><g clip-path="url(#clip0)"><path d="M2.5 2.722C-.643 5.987 0 9.455 0 19.992c0 8.75-1.527 17.521 6.463 19.586 2.495.642 24.602.642 27.094-.003 3.326-.858 6.033-3.557 6.403-8.262.052-.656.052-21.975-.002-22.645-.393-5.011-3.478-7.9-7.543-8.485C31.483.048 31.297.008 26.517 0 9.562.008 5.845-.747 2.5 2.722z" fill="url(#paint0_linear)"/><path d="M20.947 5.249c-6.052 0-11.798-.539-13.993 5.095-.907 2.326-.775 5.348-.775 9.675 0 3.796-.122 7.365.775 9.673 2.19 5.637 7.983 5.097 13.99 5.097 5.794 0 11.77.603 13.991-5.097.908-2.35.775-5.327.775-9.673 0-5.77.319-9.495-2.48-12.292-2.833-2.833-6.665-2.478-12.29-2.478h.007zM19.624 7.91c12.623-.02 14.23-1.423 13.343 18.072-.315 6.895-5.565 6.138-12.018 6.138-11.767 0-12.105-.336-12.105-12.108 0-11.908.933-12.095 10.78-12.105v.003zm9.206 2.452a1.772 1.772 0 100 3.544 1.772 1.772 0 000-3.544zm-7.883 2.072a7.585 7.585 0 000 15.168 7.582 7.582 0 007.582-7.583 7.583 7.583 0 00-7.582-7.585zm0 2.661c6.508 0 6.517 9.847 0 9.847-6.507 0-6.517-9.847 0-9.847z" fill="#fff"/></g><defs><linearGradient id="paint0_linear" x1="2.577" y1="37.445" x2="39.752" y2="5.27" gradientUnits="userSpaceOnUse"><stop stop-color="#FD5"/><stop offset=".5" stop-color="#FF543E"/><stop offset="1" stop-color="#C837AB"/></linearGradient><clipPath id="clip0"><path fill="#fff" d="M0 0h40v40H0z"/></clipPath></defs></svg>