<svg width="40" height="40" fill="none" xmlns="http://www.w3.org/2000/svg"><g clip-path="url(#clip0)"><path d="M34.61 0H5.392a5.39 5.39 0 00-5.39 5.39v29.22A5.39 5.39 0 005.391 40h14.41l.026-14.294h-3.714a.876.876 0 01-.876-.873l-.018-4.607a.876.876 0 01.876-.88h3.707v-4.452c0-5.166 3.155-7.98 7.764-7.98h3.782c.484 0 .876.393.876.877v3.885a.876.876 0 01-.875.876l-2.321.001c-2.507 0-2.992 1.191-2.992 2.939v3.854h5.508c.524 0 .931.459.87.98l-.547 4.607a.876.876 0 01-.87.773h-4.936L26.036 40h8.575A5.39 5.39 0 0040 34.61V5.39A5.39 5.39 0 0034.61 0z" fill="url(#paint0_linear)"/></g><defs><linearGradient id="paint0_linear" x1="20.001" y1="0" x2="20.001" y2="40" gradientUnits="userSpaceOnUse"><stop stop-color="#6582DD"/><stop offset="1" stop-color="#3A59BB"/></linearGradient><clipPath id="clip0"><path fill="#fff" d="M0 0h40v40H0z"/></clipPath></defs></svg>