<svg width="40" height="40" fill="none" xmlns="http://www.w3.org/2000/svg"><path d="M20.026 16A3.972 3.972 0 0024 11.992 3.983 3.983 0 0020.005 8 3.989 3.989 0 0016 12.04 3.98 3.98 0 0020.026 16z" fill="url(#paint0_linear)"/><path d="M37.872 0H2.128A2.128 2.128 0 000 2.128v35.744C0 39.048.953 40 2.128 40h35.744A2.127 2.127 0 0040 37.872V2.128A2.127 2.127 0 0037.872 0zM20.034 3.73c4.553.012 8.208 3.737 8.186 8.341-.025 4.498-3.74 8.144-8.285 8.129-4.5-.015-8.19-3.746-8.165-8.254.027-4.557 3.72-8.23 8.264-8.216zm9.223 19.705c-1.007 1.034-2.22 1.782-3.566 2.305-1.272.492-2.667.74-4.047.906.208.227.307.337.436.469 1.874 1.883 3.756 3.758 5.623 5.647.636.643.77 1.44.42 2.19-.384.818-1.241 1.356-2.083 1.298-.533-.038-.948-.303-1.317-.673-1.414-1.424-2.855-2.82-4.24-4.269-.403-.422-.597-.343-.954.024a282.945 282.945 0 01-4.32 4.34c-.654.645-1.43.76-2.19.393-.805-.39-1.316-1.212-1.276-2.039.027-.558.302-.985.685-1.368 1.854-1.851 3.703-3.707 5.553-5.562.123-.123.237-.254.416-.445-2.523-.263-4.798-.884-6.745-2.407-.241-.19-.491-.372-.712-.584-.852-.82-.938-1.756-.263-2.722.576-.826 1.545-1.049 2.552-.574.195.091.38.207.558.33 3.63 2.493 8.615 2.563 12.258.113.36-.275.746-.504 1.194-.617.87-.223 1.68.095 2.147.856.535.867.528 1.715-.13 2.389z" fill="url(#paint1_linear)"/><defs><linearGradient id="paint0_linear" x1="20" y1="8" x2="20" y2="16" gradientUnits="userSpaceOnUse"><stop stop-color="#F58220"/><stop offset="1" stop-color="#FF8013"/></linearGradient><linearGradient id="paint1_linear" x1="32.979" y1="-30.213" x2="16.808" y2="48.511" gradientUnits="userSpaceOnUse"><stop stop-color="#FFB06C"/><stop offset="1" stop-color="#FF8013"/></linearGradient></defs></svg>