<svg width="14" height="18" fill="none" xmlns="http://www.w3.org/2000/svg"><path d="M13.995 9.014c.001.3-.161.59-.46.822l-9.994 7.7c-.34.262-.827.427-1.356.459-.528.03-1.055-.074-1.463-.292-.408-.218-.665-.53-.714-.87-.048-.34.115-.677.454-.94l8.956-6.879-8.636-6.88a1.238 1.238 0 01-.365-.444.85.85 0 01-.07-.5A.993.993 0 01.58.71C.706.562.877.431 1.082.325c.205-.118.447-.207.708-.261.262-.055.538-.075.812-.058.274.017.54.07.78.156.241.085.451.202.618.343l9.655 7.7c.251.238.371.523.34.81z" fill="#E7E7E7"/></svg>