<svg width="77" height="25" fill="none" xmlns="http://www.w3.org/2000/svg"><path d="M28.233 23.561l3.911-22h6.111l-3.789 22h-6.233z" fill="#3C58BF"/><path d="M28.233 23.561l5.011-22h5.011l-3.789 22h-6.233z" fill="#293688"/><path d="M56.591 1.805C55.37 1.317 53.413.828 50.97.828c-6.111 0-10.511 3.055-10.511 7.455 0 3.3 3.055 5.011 5.5 6.111 2.444 1.1 3.178 1.834 3.178 2.811 0 1.467-1.956 2.2-3.667 2.2-2.445 0-3.789-.366-5.867-1.222l-.855-.366-.856 5.01c1.467.612 4.156 1.223 6.967 1.223 6.478 0 10.755-3.056 10.755-7.7 0-2.567-1.589-4.522-5.255-6.111-2.2-1.1-3.545-1.711-3.545-2.811 0-.978 1.1-1.956 3.545-1.956 2.078 0 3.544.367 4.644.856l.611.244.978-4.767z" fill="#3C58BF"/><path d="M56.591 1.805C55.37 1.317 53.413.828 50.97.828c-6.111 0-9.411 3.055-9.411 7.455 0 3.3 1.955 5.011 4.4 6.111 2.444 1.1 3.178 1.834 3.178 2.811 0 1.467-1.956 2.2-3.667 2.2-2.445 0-3.789-.366-5.867-1.222l-.855-.366-.856 5.01c1.467.612 4.156 1.223 6.967 1.223 6.478 0 10.755-3.056 10.755-7.7 0-2.567-1.589-4.522-5.255-6.111-2.2-1.1-3.545-1.711-3.545-2.811 0-.978 1.1-1.956 3.545-1.956 2.078 0 3.544.367 4.644.856l.611.244.978-4.767z" fill="#293688"/><path d="M67.101 1.561c-1.467 0-2.567.122-3.178 1.589l-9.166 20.41h6.6l1.222-3.667H70.4l.733 3.667H77l-5.133-22H67.1zM64.29 16.228c.367-1.1 2.444-6.478 2.444-6.478s.49-1.345.856-2.2l.367 2.078s1.222 5.5 1.466 6.722H64.29v-.122z" fill="#3C58BF"/><path d="M68.568 1.561c-1.467 0-2.567.122-3.178 1.589L54.757 23.56h6.6l1.222-3.667H70.4l.733 3.667H77l-5.133-22h-3.3zM64.29 16.228c.489-1.223 2.444-6.478 2.444-6.478s.49-1.345.856-2.2l.367 2.078s1.222 5.5 1.466 6.722H64.29v-.122z" fill="#293688"/><path d="M16.988 16.961l-.611-3.177c-1.1-3.667-4.645-7.7-8.556-9.656l5.5 19.556h6.6l9.9-22h-6.6L16.988 16.96z" fill="#3C58BF"/><path d="M16.988 16.961l-.611-3.177c-1.1-3.667-4.645-7.7-8.556-9.656l5.5 19.556h6.6l9.9-22h-5.378L16.989 16.96z" fill="#293688"/><path d="M0 1.561l1.1.244C8.922 3.64 14.3 8.283 16.378 13.783l-2.2-10.389c-.367-1.466-1.467-1.833-2.811-1.833H0z" fill="#FFBC00"/><path d="M0 1.561c7.822 1.833 14.3 6.6 16.378 12.1L14.3 4.983c-.367-1.466-1.589-2.322-2.933-2.322L0 1.561z" fill="#F7981D"/><path d="M0 1.561c7.822 1.833 14.3 6.6 16.378 12.1L14.91 8.894c-.367-1.466-.855-2.933-2.567-3.544L0 1.56z" fill="#ED7C00"/><path d="M23.1 16.228l-4.156-4.156-1.955 4.645-.49-3.056c-1.1-3.667-4.644-7.7-8.555-9.656l5.5 19.556h6.6l3.056-7.333zm11.365 7.332l-5.256-5.377-.977 5.378h6.233zm14.055-7.577c.49.489.734.855.612 1.344 0 1.467-1.956 2.2-3.667 2.2-2.444 0-3.789-.366-5.866-1.222l-.856-.366-.855 5.01c1.466.612 4.155 1.223 6.966 1.223 3.911 0 7.089-1.1 8.922-3.056l-5.255-5.133zm7.09 7.577h5.745l1.222-3.666H70.4l.733 3.667H77l-2.078-8.922-7.334-7.09.367 1.956s1.222 5.5 1.467 6.723h-5.134c.49-1.223 2.445-6.478 2.445-6.478s.489-1.345.855-2.2" fill="#051244"/></svg>