<svg width="38" height="38" viewBox="0 0 38 38" fill="none" xmlns="http://www.w3.org/2000/svg">
<circle cx="19" cy="19" r="18.5" stroke="#555555"/>
<path d="M11.9834 24H10.7119V15.5713L8.16211 16.5078V15.3594L11.7852 13.999H11.9834V24ZM21.7246 16.6445C21.7246 17.1413 21.5924 17.5833 21.3281 17.9707C21.0684 18.3581 20.7152 18.6611 20.2686 18.8799C20.7881 19.1032 21.1982 19.429 21.499 19.8574C21.8044 20.2858 21.957 20.7712 21.957 21.3135C21.957 22.1748 21.6654 22.8607 21.082 23.3711C20.5033 23.8815 19.7399 24.1367 18.792 24.1367C17.835 24.1367 17.0671 23.8815 16.4883 23.3711C15.9141 22.8561 15.627 22.1702 15.627 21.3135C15.627 20.7757 15.7728 20.2904 16.0645 19.8574C16.3607 19.4245 16.7686 19.0964 17.2881 18.873C16.846 18.6543 16.4974 18.3512 16.2422 17.9639C15.987 17.5765 15.8594 17.1367 15.8594 16.6445C15.8594 15.806 16.1283 15.1406 16.666 14.6484C17.2038 14.1562 17.9124 13.9102 18.792 13.9102C19.667 13.9102 20.3734 14.1562 20.9111 14.6484C21.4535 15.1406 21.7246 15.806 21.7246 16.6445ZM20.6924 21.2861C20.6924 20.7301 20.5146 20.2767 20.1592 19.9258C19.8083 19.5749 19.348 19.3994 18.7783 19.3994C18.2087 19.3994 17.7507 19.5726 17.4043 19.9189C17.0625 20.2653 16.8916 20.721 16.8916 21.2861C16.8916 21.8512 17.0579 22.2956 17.3906 22.6191C17.7279 22.9427 18.195 23.1045 18.792 23.1045C19.3844 23.1045 19.8493 22.9427 20.1865 22.6191C20.5238 22.291 20.6924 21.8467 20.6924 21.2861ZM18.792 14.9492C18.2952 14.9492 17.8919 15.1042 17.582 15.4141C17.2767 15.7194 17.124 16.1364 17.124 16.665C17.124 17.1709 17.2744 17.5811 17.5752 17.8955C17.8805 18.2054 18.2861 18.3604 18.792 18.3604C19.2979 18.3604 19.7012 18.2054 20.002 17.8955C20.3073 17.5811 20.46 17.1709 20.46 16.665C20.46 16.1592 20.3027 15.7467 19.9883 15.4277C19.6738 15.1087 19.2751 14.9492 18.792 14.9492ZM27.3027 18.6611H30.0781V19.8574H27.3027V23.002H26.0312V19.8574H23.2559V18.6611H26.0312V15.7559H27.3027V18.6611Z" fill="#555555"/>
</svg>
