<svg width="98" height="83" viewBox="0 0 98 83" fill="none" xmlns="http://www.w3.org/2000/svg">
<path d="M39.5884 5.463C39.5884 5.96787 41.3555 8.61847 44.8896 13.4148C48.1713 18.2111 52.3366 24.2696 57.3853 31.5904C62.4341 38.6586 67.8615 46.4842 73.6676 55.0671C79.2212 63.65 84.3962 71.8543 89.1926 79.6799C89.6974 80.942 90.7072 81.6994 92.2218 81.9518C93.484 82.2043 94.62 82.3305 95.6297 82.3305C96.6395 82.3305 97.1444 82.078 97.1444 81.5731C96.8919 80.8158 96.2608 79.175 95.2511 76.6506C93.9889 73.8738 92.6005 70.5921 91.0858 66.8055C89.3188 63.0189 87.5517 58.8537 85.7846 54.3098C84.0176 49.7659 82.1243 45.222 80.1048 40.6781C75.5609 29.8233 70.7646 17.58 65.7158 3.94837C64.9585 3.19104 63.0652 2.43373 60.0359 1.67643C56.7542 0.919107 53.3463 0.540447 49.8122 0.540447C47.0354 0.540447 44.6372 0.919107 42.6177 1.67643C40.5982 2.1813 39.5884 3.44349 39.5884 5.463ZM0.965352 5.463C0.965352 5.96787 2.73242 8.61847 6.26656 13.4148C9.54826 18.2111 13.7135 24.2696 18.7623 31.5904C23.811 38.6586 29.2384 46.4842 35.0445 55.0671C40.5982 63.65 45.7732 71.8543 50.5695 79.6799C51.0744 80.942 52.0841 81.6994 53.5988 81.9518C54.8609 82.2043 55.9969 82.3305 57.0067 82.3305C58.0164 82.3305 58.5213 82.078 58.5213 81.5731C58.2689 80.8158 57.6378 79.175 56.628 76.6506C55.3658 73.8738 53.9774 70.5921 52.4628 66.8055C50.6957 63.0189 48.9286 58.8537 47.1616 54.3098C45.3945 49.7659 43.5012 45.222 41.4817 40.6781C36.9378 29.8233 32.1415 17.58 27.0927 3.94837C26.3354 3.19104 24.4421 2.43373 21.4129 1.67643C18.1312 0.919107 14.7232 0.540447 11.1891 0.540447C8.41228 0.540447 6.01412 0.919107 3.99462 1.67643C1.97511 2.1813 0.965352 3.44349 0.965352 5.463Z" fill="black" fill-opacity="0.04"/>
</svg>
