<svg width="135" height="49" viewBox="0 0 135 49" fill="none" xmlns="http://www.w3.org/2000/svg">
<path d="M75.0475 19.1722C75.2649 19.1722 75.4526 19.2513 75.6107 19.4093C75.7687 19.5674 75.8478 19.7551 75.8478 19.9725V21.0395C75.8478 21.2569 75.7687 21.4446 75.6107 21.6027C75.4526 21.7608 75.2649 21.8398 75.0475 21.8398H61.2353C61.018 21.8398 60.8303 21.7608 60.6722 21.6027C60.5141 21.4446 60.4351 21.2569 60.4351 21.0395V19.9725C60.4351 19.7156 60.4943 19.5081 60.6129 19.3501C60.7315 19.1722 60.8204 19.0339 60.8797 18.9351L71.876 3.75951H61.5317C61.3144 3.75951 61.1267 3.68047 60.9686 3.52239C60.8105 3.36431 60.7315 3.17659 60.7315 2.95923V1.89219C60.7315 1.67484 60.8105 1.48712 60.9686 1.32904C61.1267 1.17096 61.3144 1.09192 61.5317 1.09192H74.7511C74.9685 1.09192 75.1562 1.17096 75.3143 1.32904C75.4723 1.48712 75.5514 1.67484 75.5514 1.89219V2.95923C75.5514 3.17659 75.5119 3.36431 75.4328 3.52239C75.3538 3.66071 75.2649 3.79903 75.1661 3.93734L64.1104 19.1722H75.0475Z" fill="#1B1B1B"/>
<path d="M92.1988 17.1567H81.9138L80.3725 21.0988C80.3132 21.2569 80.2045 21.4249 80.0464 21.6027C79.8884 21.7608 79.6117 21.8398 79.2165 21.8398H78.1199C77.942 21.8398 77.7839 21.7805 77.6456 21.662C77.5271 21.5237 77.4678 21.3656 77.4678 21.1877C77.4678 21.0889 77.5073 20.9506 77.5863 20.7728L84.8481 2.07003C84.9469 1.85267 85.0951 1.63532 85.2927 1.41796C85.4903 1.2006 85.7867 1.09192 86.1819 1.09192H87.9603C88.3555 1.09192 88.6519 1.2006 88.8495 1.41796C89.0471 1.63532 89.1953 1.85267 89.2941 2.07003L96.5262 20.7728C96.6052 20.9506 96.6448 21.0889 96.6448 21.1877C96.6448 21.3656 96.5756 21.5237 96.4373 21.662C96.3187 21.7805 96.1705 21.8398 95.9927 21.8398H94.896C94.5008 21.8398 94.2242 21.7608 94.0661 21.6027C93.908 21.4249 93.7993 21.2569 93.7401 21.0988L92.1988 17.1567ZM82.9512 14.4891H91.1614L87.0711 3.9077L82.9512 14.4891Z" fill="#1B1B1B"/>
<path d="M105.906 21.0395C105.906 21.2569 105.827 21.4446 105.668 21.6027C105.51 21.7608 105.323 21.8398 105.105 21.8398H103.89C103.673 21.8398 103.485 21.7608 103.327 21.6027C103.169 21.4446 103.09 21.2569 103.09 21.0395V14.1038L96.0059 2.15895C95.9071 1.98111 95.8577 1.84279 95.8577 1.744C95.8577 1.56616 95.917 1.41796 96.0355 1.2994C96.1738 1.16108 96.3319 1.09192 96.5098 1.09192H97.7843C98.1795 1.09192 98.4561 1.17096 98.6142 1.32904C98.792 1.48712 98.9303 1.65508 99.0291 1.83292L104.483 11.2584L109.966 1.83292C110.065 1.65508 110.193 1.48712 110.352 1.32904C110.529 1.17096 110.816 1.09192 111.211 1.09192H112.486C112.663 1.09192 112.812 1.16108 112.93 1.2994C113.069 1.41796 113.138 1.56616 113.138 1.744C113.138 1.84279 113.088 1.98111 112.99 2.15895L105.906 14.1038V21.0395Z" fill="#1B1B1B"/>
<path d="M125.781 13.6296L131.769 2.04039C131.887 1.80328 132.045 1.58592 132.243 1.38832C132.46 1.19072 132.737 1.09192 133.073 1.09192H134.199C134.416 1.09192 134.604 1.17096 134.762 1.32904C134.92 1.48712 134.999 1.67484 134.999 1.89219V21.0395C134.999 21.2569 134.92 21.4446 134.762 21.6027C134.604 21.7608 134.416 21.8398 134.199 21.8398H132.984C132.767 21.8398 132.579 21.7608 132.421 21.6027C132.263 21.4446 132.184 21.2569 132.184 21.0395V6.99025L127.56 15.9118C127.402 16.2082 127.234 16.4454 127.056 16.6232C126.878 16.7813 126.641 16.8603 126.345 16.8603H125.218C124.922 16.8603 124.685 16.7813 124.507 16.6232C124.329 16.4454 124.161 16.2082 124.003 15.9118L119.379 6.99025V21.0395C119.379 21.2569 119.3 21.4446 119.142 21.6027C118.984 21.7608 118.796 21.8398 118.579 21.8398H117.364C117.146 21.8398 116.959 21.7608 116.801 21.6027C116.642 21.4446 116.563 21.2569 116.563 21.0395V1.89219C116.563 1.67484 116.642 1.48712 116.801 1.32904C116.959 1.17096 117.146 1.09192 117.364 1.09192H118.49C118.826 1.09192 119.093 1.19072 119.29 1.38832C119.508 1.58592 119.676 1.80328 119.794 2.04039L125.781 13.6296Z" fill="#1B1B1B"/>
<path d="M62.1741 48.6717C61.808 48.6717 61.625 48.4887 61.625 48.1226V31.7739C61.625 31.3912 61.808 31.1998 62.1741 31.1998H68.6886C69.5539 31.1998 70.3027 31.3246 70.935 31.5742C71.5673 31.8072 72.0915 32.1317 72.5075 32.5477C72.9235 32.9637 73.223 33.4379 73.4061 33.9704C73.6057 34.5029 73.7056 35.0686 73.7056 35.6676C73.7056 36.2001 73.639 36.6744 73.5059 37.0904C73.3728 37.5064 73.1981 37.8724 72.9817 38.1886C72.7654 38.5048 72.5241 38.771 72.2579 38.9873C72.0083 39.187 71.7587 39.3451 71.5091 39.4615C71.8419 39.6279 72.1581 39.8443 72.4576 40.1105C72.7737 40.3767 73.0483 40.6929 73.2813 41.059C73.5142 41.4251 73.6973 41.8327 73.8304 42.282C73.9801 42.7313 74.055 43.2138 74.055 43.7297C74.055 44.362 73.9385 44.9777 73.7056 45.5767C73.4893 46.1591 73.1648 46.6833 72.7321 47.1492C72.2995 47.6151 71.7587 47.9895 71.1098 48.2724C70.4608 48.5386 69.712 48.6717 68.8634 48.6717H62.1741ZM63.1975 32.6974V38.7876H68.3642C69.6122 38.7876 70.5523 38.5214 71.1846 37.9889C71.8169 37.4398 72.1331 36.666 72.1331 35.6676C72.1331 33.6875 70.8768 32.6974 68.3642 32.6974H63.1975ZM63.1975 40.2852V47.1741H68.6138C69.8618 47.1741 70.8186 46.8497 71.4841 46.2007C72.1497 45.5518 72.4825 44.7281 72.4825 43.7297C72.4825 42.7146 72.1497 41.891 71.4841 41.2587C70.8186 40.6097 69.8618 40.2852 68.6138 40.2852H63.1975Z" fill="#1B1B1B"/>
<path d="M88.4149 47.1741C88.7977 47.1741 88.989 47.3655 88.989 47.7482V48.1226C88.989 48.4887 88.7977 48.6717 88.4149 48.6717H78.4809C78.1148 48.6717 77.9318 48.4887 77.9318 48.1226V31.7739C77.9318 31.3912 78.1148 31.1998 78.4809 31.1998H88.2153C88.598 31.1998 88.7893 31.3912 88.7893 31.7739V32.1483C88.7893 32.5144 88.598 32.6974 88.2153 32.6974H79.5043V39.0622H87.6661C88.0489 39.0622 88.2402 39.2535 88.2402 39.6363V40.0107C88.2402 40.3767 88.0489 40.5598 87.6661 40.5598H79.5043V47.1741H88.4149Z" fill="#1B1B1B"/>
<path d="M99.0677 31.1998C100.815 31.1998 102.204 31.6158 103.236 32.4478C104.284 33.2798 104.808 34.5445 104.808 36.2417C104.808 37.5896 104.476 38.6628 103.81 39.4615C103.161 40.2436 102.238 40.7761 101.04 41.059L105.058 47.898C105.108 47.9978 105.133 48.0893 105.133 48.1725C105.133 48.3057 105.083 48.4221 104.983 48.522C104.883 48.6218 104.767 48.6717 104.634 48.6717H104.334C104.051 48.6717 103.843 48.6052 103.71 48.4721C103.594 48.3389 103.486 48.1809 103.386 47.9978L99.4172 41.2836H94.2754V48.1226C94.2754 48.4887 94.0841 48.6717 93.7014 48.6717H93.2521C92.886 48.6717 92.703 48.4887 92.703 48.1226V31.7739C92.703 31.3912 92.886 31.1998 93.2521 31.1998H99.0677ZM94.2754 39.786H98.9429C101.805 39.786 103.236 38.6046 103.236 36.2417C103.236 33.8789 101.805 32.6974 98.9429 32.6974H94.2754V39.786Z" fill="#1B1B1B"/>
<path d="M119.801 31.7739C119.801 31.3912 119.992 31.1998 120.375 31.1998H120.824C121.19 31.1998 121.373 31.3912 121.373 31.7739V41.9076C121.373 44.337 120.816 46.1175 119.701 47.249C118.586 48.3639 117.005 48.9213 114.958 48.9213C113.943 48.9213 113.036 48.7882 112.238 48.522C111.439 48.2391 110.765 47.8148 110.216 47.249C109.667 46.6666 109.243 45.9345 108.943 45.0526C108.66 44.1706 108.519 43.1223 108.519 41.9076V31.7739C108.519 31.3912 108.702 31.1998 109.068 31.1998H109.517C109.9 31.1998 110.091 31.3912 110.091 31.7739V41.9825C110.091 43.8628 110.524 45.2439 111.389 46.1258C112.271 46.9911 113.461 47.4237 114.958 47.4237C116.456 47.4237 117.637 46.9911 118.503 46.1258C119.368 45.2439 119.801 43.8628 119.801 41.9825V31.7739Z" fill="#1B1B1B"/>
<path d="M0 2.49599C0 1.11749 1.11749 0 2.49599 0H46.1758C47.5543 0 48.6717 1.11749 48.6717 2.49599V46.1758C48.6717 47.5543 47.5543 48.6717 46.1758 48.6717H2.49599C1.11749 48.6717 0 47.5543 0 46.1758V2.49599Z" fill="#FF8A1D"/>
<path d="M21.6749 30.9972C21.8694 30.9972 22.0373 31.0679 22.1788 31.2093C22.3202 31.3508 22.3909 31.5187 22.3909 31.7132V32.6679C22.3909 32.8624 22.3202 33.0304 22.1788 33.1718C22.0373 33.3133 21.8694 33.384 21.6749 33.384H9.31662C9.12214 33.384 8.95418 33.3133 8.81274 33.1718C8.67131 33.0304 8.60059 32.8624 8.60059 32.6679V31.7132C8.60059 31.4834 8.65363 31.2977 8.75971 31.1563C8.86578 30.9972 8.94534 30.8734 8.99838 30.785L18.8373 17.2069H9.58182C9.38734 17.2069 9.21938 17.1361 9.07794 16.9947C8.9365 16.8533 8.86578 16.6853 8.86578 16.4908V15.5361C8.86578 15.3416 8.9365 15.1737 9.07794 15.0322C9.21938 14.8908 9.38734 14.8201 9.58182 14.8201H21.4097C21.6042 14.8201 21.7721 14.8908 21.9136 15.0322C22.055 15.1737 22.1257 15.3416 22.1257 15.5361V16.4908C22.1257 16.6853 22.0904 16.8533 22.0196 16.9947C21.9489 17.1185 21.8694 17.2422 21.781 17.366L11.889 30.9972H21.6749Z" fill="white"/>
<path d="M28.2162 24.9507V30.9972H33.6262C34.2097 30.9972 34.7224 30.9176 35.1644 30.7585C35.624 30.5994 36.0042 30.3784 36.3047 30.0955C36.6053 29.8126 36.8263 29.4944 36.9677 29.1408C37.1268 28.7872 37.2064 28.4071 37.2064 28.0004C37.2064 27.6115 37.1357 27.2314 36.9942 26.8601C36.8528 26.4888 36.6318 26.1617 36.3312 25.8789C36.0484 25.596 35.6771 25.375 35.2174 25.2159C34.7754 25.0391 34.245 24.9507 33.6262 24.9507H28.2162ZM28.2162 17.2069V22.5639H33.2549C34.4395 22.5639 35.3235 22.334 35.9069 21.8744C36.508 21.4147 36.8086 20.7517 36.8086 19.8854C36.8086 19.019 36.508 18.3561 35.9069 17.8964C35.3235 17.4367 34.4395 17.2069 33.2549 17.2069H28.2162ZM26.4128 33.384C26.2183 33.384 26.0504 33.3133 25.9089 33.1718C25.7675 33.0304 25.6968 32.8624 25.6968 32.6679V15.5361C25.6968 15.3416 25.7675 15.1737 25.9089 15.0322C26.0504 14.8908 26.2183 14.8201 26.4128 14.8201H33.5201C34.6517 14.8201 35.5887 14.9969 36.3312 15.3505C37.0738 15.6864 37.6661 16.1107 38.1081 16.6234C38.5501 17.1185 38.8595 17.6577 39.0363 18.2411C39.2307 18.8246 39.328 19.3461 39.328 19.8058C39.328 20.3892 39.2396 20.902 39.0628 21.344C38.886 21.786 38.6738 22.1572 38.4263 22.4578C38.1965 22.7583 37.9578 22.997 37.7103 23.1738C37.4804 23.3506 37.3125 23.4744 37.2064 23.5451C37.8782 24.0048 38.4617 24.6147 38.9567 25.375C39.4694 26.1175 39.7258 26.9927 39.7258 28.0004C39.7258 28.6723 39.602 29.3264 39.3545 29.9629C39.107 30.5994 38.7357 31.174 38.2407 31.6867C37.7633 32.1994 37.1534 32.6149 36.4108 32.9331C35.6859 33.2337 34.8461 33.384 33.8914 33.384H26.4128Z" fill="white"/>
<path fill-rule="evenodd" clip-rule="evenodd" d="M54.6006 2.72758e-08C54.9452 1.22118e-08 55.2246 0.279373 55.2246 0.623997L55.2246 48.0477C55.2246 48.3924 54.9452 48.6717 54.6006 48.6717C54.256 48.6717 53.9766 48.3924 53.9766 48.0477L53.9766 0.623997C53.9766 0.279373 54.256 4.23398e-08 54.6006 2.72758e-08Z" fill="#1B1B1B"/>
</svg>
