<svg width="135" height="49" viewBox="0 0 135 49" fill="none" xmlns="http://www.w3.org/2000/svg">
<path d="M75.0475 19.1721C75.2649 19.1721 75.4526 19.2511 75.6107 19.4092C75.7687 19.5673 75.8478 19.755 75.8478 19.9724V21.0394C75.8478 21.2568 75.7687 21.4445 75.6107 21.6026C75.4526 21.7607 75.2649 21.8397 75.0475 21.8397H61.2353C61.018 21.8397 60.8303 21.7607 60.6722 21.6026C60.5141 21.4445 60.4351 21.2568 60.4351 21.0394V19.9724C60.4351 19.7155 60.4943 19.508 60.6129 19.3499C60.7315 19.1721 60.8204 19.0338 60.8797 18.935L71.876 3.75938H61.5317C61.3144 3.75938 61.1267 3.68034 60.9686 3.52226C60.8105 3.36418 60.7315 3.17647 60.7315 2.95911V1.89207C60.7315 1.67471 60.8105 1.487 60.9686 1.32892C61.1267 1.17084 61.3144 1.0918 61.5317 1.0918H74.7511C74.9685 1.0918 75.1562 1.17084 75.3143 1.32892C75.4723 1.487 75.5514 1.67471 75.5514 1.89207V2.95911C75.5514 3.17647 75.5119 3.36418 75.4328 3.52226C75.3538 3.66058 75.2649 3.7989 75.1661 3.93722L64.1104 19.1721H75.0475Z" fill="white"/>
<path d="M92.1988 17.1566H81.9138L80.3725 21.0987C80.3132 21.2568 80.2045 21.4247 80.0464 21.6026C79.8884 21.7607 79.6117 21.8397 79.2165 21.8397H78.1199C77.942 21.8397 77.7839 21.7804 77.6456 21.6619C77.5271 21.5235 77.4678 21.3655 77.4678 21.1876C77.4678 21.0888 77.5073 20.9505 77.5863 20.7727L84.8481 2.06991C84.9469 1.85255 85.0951 1.63519 85.2927 1.41784C85.4903 1.20048 85.7867 1.0918 86.1819 1.0918H87.9603C88.3555 1.0918 88.6519 1.20048 88.8495 1.41784C89.0471 1.63519 89.1953 1.85255 89.2941 2.06991L96.5262 20.7727C96.6052 20.9505 96.6448 21.0888 96.6448 21.1876C96.6448 21.3655 96.5756 21.5235 96.4373 21.6619C96.3187 21.7804 96.1705 21.8397 95.9927 21.8397H94.896C94.5008 21.8397 94.2242 21.7607 94.0661 21.6026C93.908 21.4247 93.7993 21.2568 93.7401 21.0987L92.1988 17.1566ZM82.9512 14.489H91.1614L87.0711 3.90758L82.9512 14.489Z" fill="white"/>
<path d="M105.906 21.0394C105.906 21.2568 105.827 21.4445 105.668 21.6026C105.51 21.7607 105.323 21.8397 105.105 21.8397H103.89C103.673 21.8397 103.485 21.7607 103.327 21.6026C103.169 21.4445 103.09 21.2568 103.09 21.0394V14.1037L96.0059 2.15883C95.9071 1.98099 95.8577 1.84267 95.8577 1.74387C95.8577 1.56603 95.917 1.41784 96.0355 1.29928C96.1738 1.16096 96.3319 1.0918 96.5098 1.0918H97.7843C98.1795 1.0918 98.4561 1.17084 98.6142 1.32892C98.792 1.487 98.9303 1.65495 99.0291 1.83279L104.483 11.2583L109.966 1.83279C110.065 1.65495 110.193 1.487 110.352 1.32892C110.529 1.17084 110.816 1.0918 111.211 1.0918H112.486C112.663 1.0918 112.812 1.16096 112.93 1.29928C113.069 1.41784 113.138 1.56603 113.138 1.74387C113.138 1.84267 113.088 1.98099 112.99 2.15883L105.906 14.1037V21.0394Z" fill="white"/>
<path d="M125.781 13.6295L131.769 2.04027C131.887 1.80315 132.045 1.58579 132.243 1.38819C132.46 1.1906 132.737 1.0918 133.073 1.0918H134.199C134.416 1.0918 134.604 1.17084 134.762 1.32892C134.92 1.487 134.999 1.67471 134.999 1.89207V21.0394C134.999 21.2568 134.92 21.4445 134.762 21.6026C134.604 21.7607 134.416 21.8397 134.199 21.8397H132.984C132.767 21.8397 132.579 21.7607 132.421 21.6026C132.263 21.4445 132.184 21.2568 132.184 21.0394V6.99013L127.56 15.9117C127.402 16.2081 127.234 16.4452 127.056 16.6231C126.878 16.7812 126.641 16.8602 126.345 16.8602H125.218C124.922 16.8602 124.685 16.7812 124.507 16.6231C124.329 16.4452 124.161 16.2081 124.003 15.9117L119.379 6.99013V21.0394C119.379 21.2568 119.3 21.4445 119.142 21.6026C118.984 21.7607 118.796 21.8397 118.579 21.8397H117.364C117.146 21.8397 116.959 21.7607 116.801 21.6026C116.642 21.4445 116.563 21.2568 116.563 21.0394V1.89207C116.563 1.67471 116.642 1.487 116.801 1.32892C116.959 1.17084 117.146 1.0918 117.364 1.0918H118.49C118.826 1.0918 119.093 1.1906 119.29 1.38819C119.508 1.58579 119.676 1.80315 119.794 2.04027L125.781 13.6295Z" fill="white"/>
<path d="M62.1741 48.6716C61.808 48.6716 61.625 48.4886 61.625 48.1225V31.7738C61.625 31.3911 61.808 31.1997 62.1741 31.1997H68.6886C69.5539 31.1997 70.3027 31.3245 70.935 31.5741C71.5673 31.8071 72.0915 32.1315 72.5075 32.5475C72.9235 32.9635 73.223 33.4378 73.4061 33.9703C73.6057 34.5027 73.7056 35.0685 73.7056 35.6675C73.7056 36.2 73.639 36.6742 73.5059 37.0902C73.3728 37.5062 73.1981 37.8723 72.9817 38.1885C72.7654 38.5046 72.5241 38.7709 72.2579 38.9872C72.0083 39.1869 71.7587 39.3449 71.5091 39.4614C71.8419 39.6278 72.1581 39.8441 72.4576 40.1104C72.7737 40.3766 73.0483 40.6928 73.2813 41.0589C73.5142 41.4249 73.6973 41.8326 73.8304 42.2819C73.9801 42.7312 74.055 43.2137 74.055 43.7296C74.055 44.3619 73.9385 44.9776 73.7056 45.5766C73.4893 46.159 73.1648 46.6831 72.7321 47.1491C72.2995 47.615 71.7587 47.9894 71.1098 48.2723C70.4608 48.5385 69.712 48.6716 68.8634 48.6716H62.1741ZM63.1975 32.6973V38.7875H68.3642C69.6122 38.7875 70.5523 38.5213 71.1846 37.9888C71.8169 37.4397 72.1331 36.6659 72.1331 35.6675C72.1331 33.6874 70.8768 32.6973 68.3642 32.6973H63.1975ZM63.1975 40.2851V47.174H68.6138C69.8618 47.174 70.8186 46.8495 71.4841 46.2006C72.1497 45.5516 72.4825 44.728 72.4825 43.7296C72.4825 42.7145 72.1497 41.8909 71.4841 41.2585C70.8186 40.6096 69.8618 40.2851 68.6138 40.2851H63.1975Z" fill="white"/>
<path d="M88.4149 47.174C88.7977 47.174 88.989 47.3654 88.989 47.7481V48.1225C88.989 48.4886 88.7977 48.6716 88.4149 48.6716H78.4809C78.1148 48.6716 77.9318 48.4886 77.9318 48.1225V31.7738C77.9318 31.3911 78.1148 31.1997 78.4809 31.1997H88.2153C88.598 31.1997 88.7893 31.3911 88.7893 31.7738V32.1482C88.7893 32.5143 88.598 32.6973 88.2153 32.6973H79.5043V39.0621H87.6661C88.0489 39.0621 88.2402 39.2534 88.2402 39.6361V40.0105C88.2402 40.3766 88.0489 40.5597 87.6661 40.5597H79.5043V47.174H88.4149Z" fill="white"/>
<path d="M99.0677 31.1997C100.815 31.1997 102.204 31.6157 103.236 32.4477C104.284 33.2797 104.808 34.5443 104.808 36.2416C104.808 37.5894 104.476 38.6627 103.81 39.4614C103.161 40.2435 102.238 40.776 101.04 41.0589L105.058 47.8979C105.108 47.9977 105.133 48.0892 105.133 48.1724C105.133 48.3055 105.083 48.422 104.983 48.5219C104.883 48.6217 104.767 48.6716 104.634 48.6716H104.334C104.051 48.6716 103.843 48.6051 103.71 48.4719C103.594 48.3388 103.486 48.1807 103.386 47.9977L99.4172 41.2835H94.2754V48.1225C94.2754 48.4886 94.0841 48.6716 93.7014 48.6716H93.2521C92.886 48.6716 92.703 48.4886 92.703 48.1225V31.7738C92.703 31.3911 92.886 31.1997 93.2521 31.1997H99.0677ZM94.2754 39.7859H98.9429C101.805 39.7859 103.236 38.6045 103.236 36.2416C103.236 33.8787 101.805 32.6973 98.9429 32.6973H94.2754V39.7859Z" fill="white"/>
<path d="M119.801 31.7738C119.801 31.3911 119.992 31.1997 120.375 31.1997H120.824C121.19 31.1997 121.373 31.3911 121.373 31.7738V41.9075C121.373 44.3369 120.816 46.1174 119.701 47.2489C118.586 48.3638 117.005 48.9212 114.958 48.9212C113.943 48.9212 113.036 48.7881 112.238 48.5219C111.439 48.239 110.765 47.8147 110.216 47.2489C109.667 46.6665 109.243 45.9343 108.943 45.0524C108.66 44.1705 108.519 43.1222 108.519 41.9075V31.7738C108.519 31.3911 108.702 31.1997 109.068 31.1997H109.517C109.9 31.1997 110.091 31.3911 110.091 31.7738V41.9824C110.091 43.8627 110.524 45.2438 111.389 46.1257C112.271 46.991 113.461 47.4236 114.958 47.4236C116.456 47.4236 117.637 46.991 118.503 46.1257C119.368 45.2438 119.801 43.8627 119.801 41.9824V31.7738Z" fill="white"/>
<path d="M0 2.49599C0 1.11749 1.11749 0 2.49599 0H46.1758C47.5543 0 48.6717 1.11749 48.6717 2.49599V46.1758C48.6717 47.5543 47.5543 48.6717 46.1758 48.6717H2.49599C1.11749 48.6717 0 47.5543 0 46.1758V2.49599Z" fill="#FF8A1D"/>
<path d="M21.6749 30.9969C21.8694 30.9969 22.0373 31.0677 22.1788 31.2091C22.3202 31.3505 22.3909 31.5185 22.3909 31.713V32.6677C22.3909 32.8622 22.3202 33.0301 22.1788 33.1716C22.0373 33.313 21.8694 33.3837 21.6749 33.3837H9.31662C9.12214 33.3837 8.95418 33.313 8.81274 33.1716C8.67131 33.0301 8.60059 32.8622 8.60059 32.6677V31.713C8.60059 31.4831 8.65363 31.2975 8.75971 31.1561C8.86578 30.9969 8.94534 30.8732 8.99838 30.7848L18.8373 17.2066H9.58182C9.38734 17.2066 9.21938 17.1359 9.07794 16.9945C8.9365 16.853 8.86578 16.6851 8.86578 16.4906V15.5359C8.86578 15.3414 8.9365 15.1734 9.07794 15.032C9.21938 14.8905 9.38734 14.8198 9.58182 14.8198H21.4097C21.6042 14.8198 21.7721 14.8905 21.9136 15.032C22.055 15.1734 22.1257 15.3414 22.1257 15.5359V16.4906C22.1257 16.6851 22.0904 16.853 22.0196 16.9945C21.9489 17.1182 21.8694 17.242 21.781 17.3657L11.889 30.9969H21.6749Z" fill="white"/>
<path d="M28.2162 24.9504V30.9969H33.6262C34.2097 30.9969 34.7224 30.9174 35.1644 30.7583C35.624 30.5991 36.0042 30.3781 36.3047 30.0953C36.6053 29.8124 36.8263 29.4941 36.9677 29.1406C37.1268 28.787 37.2064 28.4068 37.2064 28.0002C37.2064 27.6112 37.1357 27.2311 36.9942 26.8598C36.8528 26.4886 36.6318 26.1615 36.3312 25.8786C36.0484 25.5957 35.6771 25.3747 35.2174 25.2156C34.7754 25.0388 34.245 24.9504 33.6262 24.9504H28.2162ZM28.2162 17.2066V22.5636H33.2549C34.4395 22.5636 35.3235 22.3338 35.9069 21.8741C36.508 21.4144 36.8086 20.7514 36.8086 19.8851C36.8086 19.0188 36.508 18.3558 35.9069 17.8961C35.3235 17.4365 34.4395 17.2066 33.2549 17.2066H28.2162ZM26.4128 33.3837C26.2183 33.3837 26.0504 33.313 25.9089 33.1716C25.7675 33.0301 25.6968 32.8622 25.6968 32.6677V15.5359C25.6968 15.3414 25.7675 15.1734 25.9089 15.032C26.0504 14.8905 26.2183 14.8198 26.4128 14.8198H33.5201C34.6517 14.8198 35.5887 14.9966 36.3312 15.3502C37.0738 15.6861 37.6661 16.1105 38.1081 16.6232C38.5501 17.1182 38.8595 17.6574 39.0363 18.2409C39.2307 18.8243 39.328 19.3459 39.328 19.8056C39.328 20.389 39.2396 20.9017 39.0628 21.3437C38.886 21.7857 38.6738 22.157 38.4263 22.4575C38.1965 22.7581 37.9578 22.9968 37.7103 23.1736C37.4804 23.3504 37.3125 23.4741 37.2064 23.5449C37.8782 24.0045 38.4617 24.6145 38.9567 25.3747C39.4694 26.1173 39.7258 26.9924 39.7258 28.0002C39.7258 28.672 39.602 29.3262 39.3545 29.9627C39.107 30.5991 38.7357 31.1737 38.2407 31.6865C37.7633 32.1992 37.1534 32.6147 36.4108 32.9329C35.6859 33.2334 34.8461 33.3837 33.8914 33.3837H26.4128Z" fill="white"/>
<path fill-rule="evenodd" clip-rule="evenodd" d="M54.6006 2.72758e-08C54.9452 1.22118e-08 55.2246 0.279373 55.2246 0.623997L55.2246 48.0477C55.2246 48.3924 54.9452 48.6717 54.6006 48.6717C54.256 48.6717 53.9766 48.3924 53.9766 48.0477L53.9766 0.623997C53.9766 0.279373 54.256 4.23398e-08 54.6006 2.72758e-08Z" fill="white"/>
</svg>
