<svg width="48" height="34" viewBox="0 0 48 34" fill="none" xmlns="http://www.w3.org/2000/svg">
<g clip-path="url(#clip0)">
<path d="M8.73525 33.9251V31.6684C8.73525 30.8034 8.15844 30.2392 7.16959 30.2392C6.67517 30.2392 6.13955 30.3897 5.76874 30.8786C5.48033 30.4649 5.0683 30.2392 4.45028 30.2392C4.03826 30.2392 3.62625 30.3521 3.29664 30.7658V30.3145H2.4314V33.9251H3.29664V31.9317C3.29664 31.2923 3.66745 30.9914 4.24427 30.9914C4.82109 30.9914 5.10951 31.3299 5.10951 31.9317V33.9251H5.97475V31.9317C5.97475 31.2923 6.38676 30.9914 6.92238 30.9914C7.49921 30.9914 7.78762 31.3299 7.78762 31.9317V33.9251H8.73525ZM21.549 30.3145H20.1481V29.2237H19.2829V30.3145H18.5001V31.0291H19.2829V32.6839C19.2829 33.5113 19.6537 34.0003 20.6425 34.0003C21.0134 34.0003 21.4254 33.8875 21.7138 33.737L21.4666 33.06C21.2194 33.2105 20.931 33.2481 20.725 33.2481C20.3129 33.2481 20.1481 33.0224 20.1481 32.6463V31.0291H21.549V30.3145ZM28.8829 30.2392C28.3885 30.2392 28.0589 30.4649 27.8528 30.7658V30.3145H26.9876V33.9251H27.8528V31.8941C27.8528 31.2923 28.1413 30.9538 28.6769 30.9538C28.8417 30.9538 29.0477 30.9914 29.2125 31.0291L29.4597 30.2768C29.2949 30.2392 29.0477 30.2392 28.8829 30.2392ZM17.7996 30.6153C17.3876 30.3521 16.8108 30.2392 16.1928 30.2392C15.2039 30.2392 14.5447 30.6906 14.5447 31.4052C14.5447 32.0069 15.0391 32.3454 15.9044 32.4583L16.3164 32.4959C16.7696 32.5711 17.0168 32.6839 17.0168 32.872C17.0168 33.1352 16.6872 33.3233 16.1104 33.3233C15.5335 33.3233 15.0803 33.1352 14.7919 32.9472L14.3799 33.549C14.8331 33.8499 15.4511 34.0003 16.0692 34.0003C17.2228 34.0003 17.882 33.5114 17.882 32.8344C17.882 32.195 17.3464 31.8565 16.5224 31.7437L16.1104 31.706C15.7395 31.6684 15.4511 31.5932 15.4511 31.3675C15.4511 31.1043 15.7395 30.9538 16.1928 30.9538C16.6872 30.9538 17.1816 31.1419 17.4288 31.2547L17.7996 30.6153ZM40.7902 30.2392C40.2958 30.2392 39.9662 30.4649 39.7602 30.7658V30.3145H38.8949V33.9251H39.7602V31.8941C39.7602 31.2923 40.0486 30.9538 40.5842 30.9538C40.749 30.9538 40.955 30.9914 41.1198 31.0291L41.367 30.2768C41.2022 30.2392 40.955 30.2392 40.7902 30.2392ZM29.7481 32.1198C29.7481 33.2105 30.5722 34.0003 31.8494 34.0003C32.4262 34.0003 32.8383 33.8875 33.2503 33.5866L32.8383 32.9472C32.5086 33.1729 32.179 33.2857 31.8082 33.2857C31.1078 33.2857 30.6134 32.8344 30.6134 32.1198C30.6134 31.4428 31.1078 30.9914 31.8082 30.9538C32.179 30.9538 32.5086 31.0667 32.8383 31.2923L33.2503 30.6529C32.8383 30.3521 32.4262 30.2392 31.8494 30.2392C30.5722 30.2392 29.7481 31.029 29.7481 32.1198ZM37.7413 32.1198V30.3145H36.876V30.7658C36.5876 30.4273 36.1756 30.2392 35.64 30.2392C34.5275 30.2392 33.6623 31.029 33.6623 32.1198C33.6623 33.2105 34.5275 34.0003 35.64 34.0003C36.2168 34.0003 36.6288 33.8122 36.876 33.4737V33.9251H37.7413V32.1198ZM34.5687 32.1198C34.5687 31.4804 35.022 30.9538 35.7636 30.9538C36.464 30.9538 36.9584 31.4428 36.9584 32.1198C36.9584 32.7591 36.464 33.2857 35.7636 33.2857C35.022 33.2481 34.5687 32.7591 34.5687 32.1198ZM24.2271 30.2392C23.0735 30.2392 22.2494 30.9914 22.2494 32.1198C22.2494 33.2481 23.0735 34.0003 24.2683 34.0003C24.8451 34.0003 25.422 33.8498 25.8752 33.5114L25.4632 32.9472C25.1335 33.1729 24.7215 33.3233 24.3095 33.3233C23.7739 33.3233 23.2383 33.0976 23.1147 32.4583H26.04C26.04 32.3454 26.04 32.2702 26.04 32.1574C26.0812 30.9914 25.3395 30.2392 24.2271 30.2392ZM24.2271 30.9162C24.7627 30.9162 25.1335 31.2171 25.2159 31.7813H23.1559C23.2383 31.2923 23.6091 30.9162 24.2271 30.9162ZM45.6932 32.1198V28.8853H44.828V30.7658C44.5395 30.4273 44.1275 30.2392 43.5919 30.2392C42.4795 30.2392 41.6142 31.029 41.6142 32.1198C41.6142 33.2105 42.4795 34.0003 43.5919 34.0003C44.1687 34.0003 44.5807 33.8122 44.828 33.4737V33.9251H45.6932V32.1198ZM42.5207 32.1198C42.5207 31.4804 42.9739 30.9538 43.7155 30.9538C44.4159 30.9538 44.9104 31.4428 44.9104 32.1198C44.9104 32.7591 44.4159 33.2857 43.7155 33.2857C42.9739 33.2481 42.5207 32.7591 42.5207 32.1198ZM13.5971 32.1198V30.3145H12.7318V30.7658C12.4434 30.4273 12.0314 30.2392 11.4958 30.2392C10.3833 30.2392 9.51808 31.029 9.51808 32.1198C9.51808 33.2105 10.3833 34.0003 11.4958 34.0003C12.0726 34.0003 12.4846 33.8122 12.7318 33.4737V33.9251H13.5971V32.1198ZM10.3833 32.1198C10.3833 31.4804 10.8365 30.9538 11.5782 30.9538C12.2786 30.9538 12.773 31.4428 12.773 32.1198C12.773 32.7591 12.2786 33.2857 11.5782 33.2857C10.8365 33.2481 10.3833 32.7591 10.3833 32.1198Z" fill="black"/>
<path d="M30.489 2.896H17.5105V24.1836H30.489V2.896Z" fill="#FF5F00"/>
<path d="M18.3348 13.5398C18.3348 9.2146 20.5597 5.37832 23.9794 2.89602C21.4661 1.09071 18.2936 0 14.8326 0C6.63348 0 0 6.05531 0 13.5398C0 21.0243 6.63348 27.0796 14.8326 27.0796C18.2936 27.0796 21.4661 25.9889 23.9794 24.1836C20.5597 21.7389 18.3348 17.865 18.3348 13.5398Z" fill="#EB001B"/>
<path d="M48.0001 13.5398C48.0001 21.0243 41.3666 27.0796 33.1675 27.0796C29.7066 27.0796 26.5341 25.9889 24.0208 24.1836C27.4817 21.7013 29.6654 17.865 29.6654 13.5398C29.6654 9.2146 27.4405 5.37832 24.0208 2.89602C26.5341 1.09071 29.7066 0 33.1675 0C41.3666 0 48.0001 6.09292 48.0001 13.5398Z" fill="#F79E1B"/>
</g>
<defs>
<clipPath id="clip0">
<rect width="48" height="34" fill="white"/>
</clipPath>
</defs>
</svg>
