<svg width="82" height="23" viewBox="0 0 82 23" fill="none" xmlns="http://www.w3.org/2000/svg">
<path fill-rule="evenodd" clip-rule="evenodd" d="M22.0964 4.37595e-07V0.0100441C22.0863 0.0100441 18.8934 3.83136e-07 18.042 3.02314C17.2616 5.7952 15.0621 13.4485 15.0012 13.6594H14.3931C14.3931 13.6594 12.1429 5.83537 11.3523 3.0131C10.5009 -0.0100433 7.2979 4.37595e-07 7.2979 4.37595e-07H0V23H7.2979V9.34061H7.60198H7.90606L12.1632 23H17.2311L21.4883 9.35066H22.0964V23H29.3943V4.37595e-07H22.0964Z" fill="#4DB45E"/>
<path fill-rule="evenodd" clip-rule="evenodd" d="M48.7547 0C48.7547 0 46.616 0.19083 45.6125 2.41048L40.4432 13.6594H39.835V0H32.5371V23H39.4296C39.4296 23 41.6696 22.7991 42.6731 20.5895L47.7411 9.34061H48.3492V23H55.6471V0H48.7547Z" fill="#4DB45E"/>
<path fill-rule="evenodd" clip-rule="evenodd" d="M58.8892 10.4453V22.9999H66.1871V15.668H74.0931C77.5394 15.668 80.4585 13.4885 81.5431 10.4453H58.8892Z" fill="#4DB45E"/>
<path fill-rule="evenodd" clip-rule="evenodd" d="M74.0919 0H57.8643C58.6751 4.37904 61.9896 7.89432 66.2771 9.0393C67.2502 9.30044 68.2739 9.44105 69.328 9.44105H81.8358C81.9473 8.91878 81.998 8.38646 81.998 7.83406C81.998 3.50524 78.4605 0 74.0919 0Z" fill="url(#paint0_linear)"/>
<defs>
<linearGradient id="paint0_linear" x1="57.8662" y1="4.72052" x2="81.998" y2="4.72052" gradientUnits="userSpaceOnUse">
<stop offset="0.3" stop-color="#00B4E6"/>
<stop offset="1" stop-color="#088CCB"/>
</linearGradient>
</defs>
</svg>
