<svg width="6" height="8" viewBox="0 0 6 8" fill="none" xmlns="http://www.w3.org/2000/svg">
<path d="M5.99797 3.9361C5.99836 4.06704 5.92865 4.19395 5.80093 4.29478L1.51743 7.6574C1.37202 7.77185 1.16306 7.84383 0.936524 7.85749C0.70999 7.87116 0.484437 7.82539 0.309484 7.73026C0.134532 7.63513 0.0245112 7.49844 0.0036251 7.35024C-0.017261 7.20205 0.0526983 7.05449 0.198113 6.94004L4.03613 3.9361L0.335186 0.932148C0.264023 0.874823 0.21088 0.808861 0.178813 0.738056C0.146745 0.667251 0.136384 0.592998 0.148326 0.519565C0.160267 0.446131 0.194276 0.374966 0.248397 0.310158C0.302518 0.245351 0.375684 0.18818 0.46369 0.141931C0.551777 0.0906062 0.655118 0.0517349 0.767237 0.0277524C0.879357 0.00376937 0.997839 -0.00480654 1.11526 0.00255916C1.23268 0.00992486 1.34651 0.0330743 1.44962 0.0705585C1.55273 0.108042 1.6429 0.159053 1.71447 0.220393L5.85233 3.58302C5.95986 3.68675 6.01114 3.81106 5.99797 3.9361Z" fill="white"/>
</svg>
