<svg width="110" height="27" viewBox="0 0 110 27" fill="none" xmlns="http://www.w3.org/2000/svg">
<g clip-path="url(#clip0)">
<path d="M42.1725 7.90381C43.6211 7.90381 45.1614 8.38075 46.2249 9.42635L44.9963 11.4258C44.2996 10.8205 43.2544 10.3252 42.3009 10.3252C40.1372 10.3252 39.257 11.8477 39.257 13.407C39.257 15.0029 40.2289 16.6538 42.3009 16.6538C43.3644 16.6538 44.4279 16.0668 45.1614 15.3331L46.5183 17.2592C46.3716 17.4059 46.2249 17.5527 46.0598 17.6994C45.1247 18.4699 43.8595 19.0752 42.1725 19.0752C38.707 19.0752 36.5066 16.6722 36.5066 13.4803C36.5066 10.3069 38.8353 7.90381 42.1725 7.90381Z" fill="#2C3341"/>
<path d="M52.3857 7.90381C55.7412 7.90381 58.0333 10.3252 58.0333 13.407C58.0333 16.5805 55.7412 19.0569 52.3857 19.0569C49.0301 19.0569 46.738 16.5805 46.738 13.407C46.7564 10.3069 49.0484 7.90381 52.3857 7.90381ZM52.3857 16.6355C54.0909 16.6355 55.3011 15.2414 55.3011 13.407C55.3011 11.646 54.0909 10.3069 52.3857 10.3069C50.6804 10.3069 49.4702 11.6276 49.4702 13.407C49.4885 15.2597 50.6804 16.6355 52.3857 16.6355Z" fill="#2C3341"/>
<path d="M59.4822 8.0874H62.1593L65.1481 13.132C65.5699 13.8474 66.0466 14.9664 66.0466 14.9664H66.0833C66.0833 14.9664 65.9549 13.8107 65.9549 13.132V8.0874H68.5954V18.8736H65.9366L62.9294 13.8474C62.5077 13.132 62.0309 12.013 62.0309 12.013H61.9943C61.9943 12.013 62.1226 13.1687 62.1226 13.8474V18.8736H59.4822V8.0874Z" fill="#2C3341"/>
<path d="M73.4929 10.3437H70.2107V8.0874H79.4156V10.3437H76.1334V18.8736H73.4929V10.3437Z" fill="#2C3341"/>
<path d="M82.7691 8.0874H85.5379L89.2052 18.8736H86.4914L85.8313 16.6173H82.4574L81.8156 18.8736H79.1018L82.7691 8.0874ZM85.2078 14.4894L84.6027 12.3982C84.401 11.7195 84.1627 10.5455 84.1627 10.5455H84.126C84.126 10.5455 83.8876 11.7195 83.6859 12.3982L83.0625 14.4894H85.2078Z" fill="#2C3341"/>
<path d="M95.2731 7.90381C96.7217 7.90381 98.2619 8.38075 99.3255 9.42635L98.0969 11.4258C97.4001 10.8205 96.355 10.3252 95.4015 10.3252C93.2378 10.3252 92.3576 11.8477 92.3576 13.407C92.3576 15.0029 93.3295 16.6538 95.4015 16.6538C96.465 16.6538 97.5285 16.0668 98.2619 15.3331L99.6188 17.2592C98.6654 18.2314 97.2534 19.0752 95.2731 19.0752C91.8075 19.0752 89.6072 16.6722 89.6072 13.4803C89.6255 10.3069 91.9359 7.90381 95.2731 7.90381Z" fill="#2C3341"/>
<path d="M104.096 10.3437H100.813V8.0874H110V10.3437H106.736V18.8736H104.096V10.3437Z" fill="#2C3341"/>
<path d="M26.8995 9.73841C26.6061 8.67446 25.5243 8.03242 24.4607 8.32593C23.3972 8.61943 22.7555 9.70172 23.0488 10.7657C23.2689 11.5728 23.3789 12.435 23.3789 13.2788C23.3789 18.6352 19.0332 22.9827 13.6789 22.9827C13.1655 22.9827 12.6704 22.946 12.1937 22.8726C14.4491 22.359 16.136 20.3412 16.136 17.9381C16.136 15.1315 13.8623 12.8752 11.0752 12.8752C8.26971 12.8752 6.01433 15.1499 6.01433 17.9381C6.01433 18.4884 6.10602 19.0021 6.25271 19.4974C4.84081 17.8097 3.99733 15.6451 3.99733 13.2971C3.99733 8.89459 6.96783 5.04237 11.2035 3.9234C12.267 3.64824 12.9088 2.54761 12.6154 1.48366C12.3404 0.419715 11.2402 -0.22232 10.1767 0.0711822C4.1807 1.64876 0 7.09689 0 13.3155C0 20.8731 6.14269 27 13.6789 27C21.2335 27 27.3579 20.8548 27.3579 13.3155C27.3579 12.0864 27.2112 10.8941 26.8995 9.73841Z" fill="#F58A1F"/>
<path d="M22.2258 4.60866C22.4054 2.794 21.0805 1.17727 19.2666 0.997576C17.4527 0.817883 15.8366 2.14328 15.657 3.95793C15.4774 5.77259 16.8023 7.38932 18.6162 7.56902C20.4301 7.74871 22.0462 6.42331 22.2258 4.60866Z" fill="#F58A1F"/>
</g>
<defs>
<clipPath id="clip0">
<rect width="110" height="27" fill="white"/>
</clipPath>
</defs>
</svg>
