<svg width="21" height="12" viewBox="0 0 21 12" fill="none" xmlns="http://www.w3.org/2000/svg">
<rect width="21" height="12" rx="1" fill="#F15642"/>
<path d="M6.292 3.8C6.656 3.8 6.972 3.86 7.24 3.98C7.512 4.1 7.72 4.272 7.864 4.496C8.008 4.72 8.08 4.986 8.08 5.294C8.08 5.598 8.008 5.864 7.864 6.092C7.72 6.316 7.512 6.488 7.24 6.608C6.972 6.728 6.656 6.788 6.292 6.788H5.344V8H4.564V3.8H6.292ZM6.256 6.128C6.596 6.128 6.854 6.056 7.03 5.912C7.206 5.768 7.294 5.562 7.294 5.294C7.294 5.026 7.206 4.82 7.03 4.676C6.854 4.532 6.596 4.46 6.256 4.46H5.344V6.128H6.256ZM8.85892 3.8H10.6949C11.1429 3.8 11.5409 3.888 11.8889 4.064C12.2369 4.236 12.5069 4.482 12.6989 4.802C12.8909 5.118 12.9869 5.484 12.9869 5.9C12.9869 6.316 12.8909 6.684 12.6989 7.004C12.5069 7.32 12.2369 7.566 11.8889 7.742C11.5409 7.914 11.1429 8 10.6949 8H8.85892V3.8ZM10.6589 7.34C10.9669 7.34 11.2369 7.282 11.4689 7.166C11.7049 7.046 11.8849 6.878 12.0089 6.662C12.1369 6.442 12.2009 6.188 12.2009 5.9C12.2009 5.612 12.1369 5.36 12.0089 5.144C11.8849 4.924 11.7049 4.756 11.4689 4.64C11.2369 4.52 10.9669 4.46 10.6589 4.46H9.63892V7.34H10.6589ZM14.596 4.454V5.732H16.624V6.392H14.596V8H13.816V3.8H16.882V4.454H14.596Z" fill="white"/>
</svg>
