<svg width="6" height="8" viewBox="0 0 6 8" fill="none" xmlns="http://www.w3.org/2000/svg">
<path d="M0.0020278 3.9361C0.00163678 4.06704 0.0713508 4.19395 0.199068 4.29478L4.48257 7.6574C4.62798 7.77185 4.83694 7.84383 5.06348 7.85749C5.29001 7.87116 5.51556 7.82539 5.69052 7.73026C5.86547 7.63513 5.97549 7.49844 5.99637 7.35024C6.01726 7.20205 5.9473 7.05449 5.80189 6.94004L1.96387 3.9361L5.66481 0.932148C5.73598 0.874823 5.78912 0.808861 5.82119 0.738056C5.85326 0.667251 5.86362 0.592998 5.85167 0.519565C5.83973 0.446131 5.80572 0.374966 5.7516 0.310158C5.69748 0.245351 5.62432 0.18818 5.53631 0.141931C5.44822 0.0906062 5.34488 0.0517349 5.23276 0.0277524C5.12064 0.00376937 5.00216 -0.00480654 4.88474 0.00255916C4.76732 0.00992486 4.65349 0.0330743 4.55038 0.0705585C4.44727 0.108042 4.3571 0.159053 4.28553 0.220393L0.147667 3.58302C0.0401376 3.68675 -0.0111401 3.81106 0.0020278 3.9361Z" fill="white"/>
</svg>
