<svg width="76" height="32" viewBox="0 0 76 32" fill="none" xmlns="http://www.w3.org/2000/svg">
<g clip-path="url(#clip0)">
<path d="M30.7326 30.8903C30.588 30.4996 30.3259 30.2333 30.1361 29.887C29.6751 29.2921 29.1327 28.7771 28.5904 28.2621C28.4006 28.2 28.3192 28.0224 28.1385 27.9514C28.0209 27.8004 27.8311 27.7205 27.6775 27.6051C27.3701 27.3742 27.0357 27.1789 26.6922 26.9835C26.0414 26.5751 25.2369 26.3176 24.4415 26.0513C23.5828 25.847 22.6789 25.6961 21.7388 25.5718C20.8078 25.4386 19.8768 25.3143 19.1718 24.9503C18.765 24.8348 18.4667 24.6128 18.1142 24.4353C17.7888 24.2222 17.4363 24.0446 17.1651 23.7782C16.8307 23.5829 16.6228 23.2544 16.3606 22.988C16.2702 22.8104 16.1166 22.7039 16.0443 22.5085C15.9539 22.473 15.9268 22.3665 15.8725 22.3043C15.8092 22.2333 15.8092 22.0912 15.7008 22.0646C15.6465 22.4286 15.6646 22.8637 15.7008 23.2366C15.746 23.3964 15.764 23.5918 15.8092 23.7516C15.8364 23.8936 15.9719 24.1245 15.9177 24.231C13.0975 24.089 11.0366 23.21 9.24692 22.0557C8.3611 21.4785 7.60182 20.7771 6.89678 20.0224C6.58945 19.6051 6.25501 19.2055 5.98384 18.7438C5.70363 18.291 5.46862 17.776 5.21552 17.2965C4.79973 16.2577 4.41105 15.1922 4.26643 13.887C4.07661 12.6706 4.1218 11.1167 4.40201 9.98909C4.50144 9.36756 4.70934 8.84369 4.89012 8.30207C5.00763 8.05346 5.13417 7.80485 5.24264 7.54736C5.3963 7.33426 5.47765 7.04125 5.66747 6.85479C6.1827 5.90474 6.95101 5.19441 7.73741 4.51073C8.58707 3.89808 9.55425 3.40085 10.7203 3.09896C11.8411 2.85035 13.3687 2.80596 14.5799 3.06345C17.0385 3.56067 18.8915 4.64391 20.4463 6.02904C22.019 7.38753 23.2303 9.11006 24.0619 11.2055C24.9206 13.1944 25.2189 16.2932 24.4505 18.5485C24.1342 18.3709 23.8178 18.2022 23.5014 18.0335C23.1218 17.9269 22.7512 17.8026 22.3083 17.7582C21.775 17.7494 21.2507 17.7582 20.9072 17.9269C21.6032 17.8559 22.1637 18.0424 22.5975 18.2022C22.8506 18.2999 22.9953 18.362 23.1941 18.4774C23.5828 18.6994 23.9263 18.9036 24.2155 19.2055C25.0381 19.9158 25.6256 20.857 25.9058 22.1001C25.9058 22.1356 25.951 22.1267 25.942 22.0646C25.9781 22.0557 25.9962 22.029 26.0143 21.9935C26.0595 21.9403 26.1137 21.887 26.1589 21.8248C26.2493 21.7183 26.3397 21.6117 26.403 21.4785C26.5928 21.2566 26.7464 21.008 26.8911 20.7505C27.2255 20.271 27.4786 19.7205 27.7679 19.1966C28.265 18.0779 28.6718 16.8703 28.9248 15.503C29.431 12.4663 28.8254 9.58953 27.7679 7.46744C26.6832 5.3276 25.1646 3.61395 23.2032 2.32649C21.2236 1.04791 18.9096 0.106731 15.7279 0.017941C15.7098 -0.0442122 15.6827 0.02682 15.6194 0.017941C13.9382 -0.0353332 12.5823 0.195522 11.2355 0.532925C10.6118 0.737142 9.961 0.914723 9.40962 1.18997C8.77689 1.39419 8.27071 1.73159 7.69221 1.98021C7.48431 2.17554 7.16795 2.27321 6.95101 2.45967C6.6708 2.59286 6.46291 2.80596 6.1827 2.93914C5.73075 3.32982 5.25168 3.6761 4.80877 4.07566C4.3749 4.46633 3.99526 4.91029 3.57946 5.31872C3.51619 5.46078 3.40772 5.55845 3.29925 5.665C3.22694 5.79819 3.13655 5.91362 3.01904 6.01128C2.97385 6.17111 2.82923 6.23326 2.77499 6.39308C2.65748 6.48187 2.63037 6.65945 2.49478 6.73937C2.37727 7.02349 2.16938 7.22771 2.03379 7.49408C1.87109 7.75157 1.74454 8.0357 1.58184 8.28432C1.32875 8.86145 1.05758 9.42083 0.849682 10.0424C0.632745 10.6461 0.451965 11.2854 0.325419 11.978C0.189834 12.6262 0.0632878 13.4697 0.0813658 14.1534C-0.00902429 14.402 0.0632878 14.8637 0.0813658 15.1567C0.0813658 15.21 0.0452098 15.2277 0.0452098 15.2632C0.0452098 15.5918 0.1356 15.9913 0.153678 16.1955C0.22599 16.9502 0.361575 17.6517 0.578511 18.2643C0.714097 18.948 1.00334 19.4808 1.21124 20.0934C1.52761 20.6084 1.74454 21.2211 2.12418 21.6828C2.40439 22.2244 2.80211 22.6506 3.18175 23.0945C3.5885 23.5207 3.99526 23.9558 4.48336 24.3021C5.37823 25.0657 6.42675 25.6783 7.57471 26.2022C9.71695 27.2233 12.9168 27.8892 15.7912 27.7205C16.5233 27.6228 17.2645 27.534 17.9334 27.3742C18.5481 27.1522 19.2621 27.0191 20.0033 26.9303C21.6936 26.8237 23.158 26.9747 24.4596 27.3476C25.7793 27.6939 26.9182 28.2177 27.9034 28.9014C28.4277 29.2033 28.8616 29.594 29.3045 29.9669C29.7564 30.3487 30.118 30.8193 30.5338 31.2455C30.588 31.4053 30.6965 31.5207 30.7778 31.6628C30.8863 31.7782 30.8321 32.0446 31.0942 32.0091C31.2569 31.8493 31.0671 31.6184 31.0581 31.4231C30.8954 31.2544 30.8592 31.0324 30.7326 30.8903Z" fill="#FF8D00"/>
<path d="M24.1709 21.4429C24.1347 21.4429 24.1257 21.4696 24.0986 21.4785C24.0353 21.6116 24.0624 21.8247 24.0986 21.9579C24.2884 22.3397 24.3517 22.8369 24.7675 22.9968C24.9663 22.9346 24.9482 22.6505 24.9392 22.3752C24.8488 22.0378 24.7223 21.7359 24.5144 21.514C24.3697 21.4607 24.2703 21.3719 24.1709 21.4429ZM21.7123 22.4107C21.7123 22.393 21.6851 22.3752 21.6761 22.4107C21.3326 22.3664 21.2151 22.5528 21.0434 22.686C20.7451 23.4585 21.2242 24.2132 22.0648 24.2043C22.3992 24.1244 22.6071 23.9113 22.6614 23.5473C22.6162 22.8991 22.336 22.4818 21.7123 22.4107Z" fill="#FCB316"/>
<path d="M41.9774 19.9511C42.113 20.5104 42.4022 20.91 42.7276 21.2829C43.0531 21.6558 43.4327 21.9666 43.8937 22.1975C44.3275 22.4638 44.7976 22.6858 45.3399 22.8367C45.6021 22.9255 45.8551 23.0321 46.1805 23.0676C46.4065 23.1919 46.6777 23.2541 46.6958 23.5737C46.6867 23.9555 46.4246 24.0976 46.0902 24.1686C45.7557 24.0976 45.3399 24.1064 45.0597 23.9821C44.3547 23.9022 43.7852 23.6803 43.1886 23.476C42.0497 23.041 41.0916 22.4106 40.2961 21.6381C40.1334 21.3717 39.9075 21.1586 39.7357 20.9011C39.564 20.6436 39.4465 20.3329 39.2657 20.0754C37.8737 19.8978 36.9246 19.2763 36.093 18.5571C35.3247 17.6958 34.71 16.6658 34.457 15.2985C34.1587 13.9844 34.2491 12.3417 34.6016 11.072C35.3699 8.61255 36.9788 6.97881 40.0159 6.75684C40.8566 6.78347 41.5887 6.88114 42.2576 7.12976C42.9355 7.36949 43.5773 7.81344 44.0835 8.27515C44.1287 8.31067 44.1468 8.31954 44.1739 8.36394C44.2824 8.51488 44.5445 8.72798 44.6891 8.91444C44.7162 8.94995 44.7072 9.01211 44.7343 9.0565C44.7885 9.13641 44.8699 9.17193 44.9241 9.24296C44.9512 9.28736 44.9422 9.34063 44.9693 9.37615C45.0055 9.42942 45.0507 9.50933 45.1049 9.607C45.123 9.64252 45.1863 9.66916 45.1953 9.69579C45.2766 9.84674 45.3128 10.0332 45.3851 10.2019C45.4574 10.3795 45.5569 10.5304 45.6201 10.708C45.8009 11.2319 45.9184 11.8534 45.9907 12.4927C46.1715 14.3395 45.8009 15.991 45.1049 17.2163C44.7795 17.8556 44.3275 18.3795 43.7942 18.8234C43.3061 19.3295 42.6373 19.6314 41.9774 19.9511ZM39.7357 8.39058C39.329 8.41721 39.0849 8.60367 38.7505 8.71022C38.5335 8.90556 38.2624 9.0565 38.0997 9.30512C37.8285 9.45606 37.7562 9.79346 37.5393 9.9888C37.3585 10.4328 37.1867 10.93 37.0692 11.5071C36.9608 12.0754 36.8884 12.7147 36.8794 13.3451C36.8704 14.9255 37.2138 16.4971 37.8556 17.4294C38.2353 17.8823 38.6962 18.2552 39.2567 18.5304C39.5821 18.5571 39.8352 18.6636 40.1877 18.6725C40.3865 18.6015 40.7119 18.6725 40.8385 18.5304C41.1277 18.5482 41.191 18.3617 41.4441 18.344C41.5797 18.2108 41.7243 18.1042 41.9141 18.0243C42.0859 17.8379 42.2486 17.6514 42.4294 17.4738C42.5197 17.3406 42.574 17.1542 42.7096 17.0565C43.5231 15.5293 43.6135 12.7324 43.0802 10.9566C42.8813 10.3084 42.6011 9.78458 42.2847 9.34951C41.9412 9.00323 41.5345 8.71022 41.0735 8.47937C40.7029 8.39946 40.3504 8.30179 39.8623 8.34618C39.8352 8.34618 39.808 8.35506 39.8171 8.39058C39.799 8.39058 39.7719 8.39058 39.7357 8.39058ZM49.5973 7.10312C50.3295 7.12976 51.1882 7.04096 51.839 7.14751C51.9836 7.36949 51.9294 7.63586 51.9294 7.88447C51.9836 11.2496 51.9294 14.8634 51.9294 18.2996C51.9294 18.5748 51.9384 18.8589 51.9294 19.1253C51.9203 19.3562 51.9836 19.6048 51.839 19.8179C51.5136 19.8978 51.0435 19.8623 50.6277 19.8623C50.1848 19.8623 49.751 19.9244 49.4617 19.7735C49.3804 15.7069 49.3804 11.3207 49.4617 7.24518C49.4798 7.17415 49.525 7.12976 49.5973 7.10312ZM55.2015 7.10312H57.398C57.5968 7.36949 57.6601 7.76904 57.7234 8.15972C58.3832 10.6281 59.034 13.1053 59.6396 15.6359C59.7843 15.6536 59.7391 15.4849 59.7843 15.405C59.8475 15.3429 59.8114 15.1919 59.8747 15.1298C59.9018 14.9255 60.0283 14.819 60.0193 14.5793C60.182 14.2685 60.2362 13.8423 60.3899 13.5227C60.5797 12.7768 60.8328 12.0843 61.0497 11.365C61.2576 10.6192 61.5378 9.94441 61.7005 9.16305C62.0079 8.53264 62.0802 7.67138 62.4508 7.10312H63.3818C63.7162 7.72465 63.8428 8.5504 64.132 9.21633C64.3218 9.96216 64.584 10.637 64.7828 11.3739C65.2438 12.8035 65.7229 14.2152 66.1387 15.6891C66.3285 15.4139 66.3285 14.9522 66.4641 14.6325C66.5454 14.2685 66.6178 13.8956 66.7443 13.5759C67.1059 12.1198 67.4493 10.6547 67.8651 9.26072C68.0188 8.53264 68.1725 7.7868 68.4256 7.14751C68.9679 7.0676 69.7995 7.0676 70.3418 7.14751C70.387 7.68913 70.1339 8.27515 69.9712 8.75462C69.8808 9.34063 69.6639 9.79346 69.5464 10.3617C69.2119 11.4006 68.9589 12.5016 68.6154 13.5315C68.3532 14.6325 68.0007 15.6447 67.7295 16.7457C67.5488 17.2518 67.4222 17.8112 67.2595 18.3528C67.0787 18.8501 67.0155 19.4627 66.7443 19.8712H65.4336C65.0992 19.294 64.9817 18.5127 64.6834 17.9C64.0326 15.8756 63.3095 13.9311 62.6767 11.8889C62.4598 12.1109 62.4598 12.5637 62.3061 12.8478C62.2067 13.1941 62.1073 13.5404 61.9807 13.8601C61.8 14.5615 61.5288 15.1564 61.3751 15.8756C61.113 16.506 60.9232 17.2074 60.7243 17.9C60.4531 18.5038 60.3537 19.2763 60.0193 19.8268C59.6758 19.9333 59.1334 19.8445 58.7086 19.8712C58.3832 19.5071 58.3471 18.8501 58.1482 18.3528C57.9945 17.8379 57.8861 17.2696 57.6872 16.7901C57.4341 15.6714 57.0545 14.6858 56.8014 13.5759C56.4669 12.546 56.1777 11.4716 55.8704 10.4061C55.6986 9.90001 55.5721 9.35839 55.4003 8.84341C55.319 8.29291 54.9393 7.79568 55.0749 7.19191C55.093 7.14751 55.1472 7.12088 55.2015 7.10312ZM73.6501 7.10312C74.3823 7.12976 75.2319 7.04096 75.8918 7.14751C76.0545 7.62698 75.9822 8.14196 75.9822 8.65695V18.2907C75.9822 18.8145 76.0454 19.3207 75.8918 19.809C75.3856 19.8623 74.6444 19.8889 74.0207 19.8534C73.8399 19.8445 73.623 19.8978 73.5055 19.7646C73.3428 19.2851 73.4151 18.779 73.4151 18.2463V8.71022C73.4151 8.13308 73.3609 7.57371 73.5055 7.19191C73.5416 7.14751 73.5959 7.12088 73.6501 7.10312Z" fill="#0269B3"/>
</g>
<defs>
<clipPath id="clip0">
<rect width="76" height="32" fill="white"/>
</clipPath>
</defs>
</svg>
