<svg width="40" height="40" viewBox="0 0 40 40" fill="none" xmlns="http://www.w3.org/2000/svg">
<g clip-path="url(#clip0)">
<path d="M2.50001 2.72166C-0.643327 5.98666 6.57141e-06 9.455 6.57141e-06 19.9917C6.57141e-06 28.7417 -1.52666 37.5133 6.46334 39.5783C8.95834 40.22 31.065 40.22 33.5567 39.575C36.8833 38.7167 39.59 36.0183 39.96 31.3133C40.0117 30.6567 40.0117 9.33833 39.9583 8.66833C39.565 3.65666 36.48 0.768329 32.415 0.183329C31.4833 0.0483293 31.2967 0.00832927 26.5167 -4.06057e-06C9.56167 0.00832927 5.84501 -0.746671 2.50001 2.72166Z" fill="url(#paint0_linear)"/>
<path d="M20.9469 5.24863C14.8952 5.24863 9.14854 4.7103 6.95354 10.3436C6.04688 12.6703 6.17854 15.692 6.17854 20.0186C6.17854 23.8153 6.05688 27.3836 6.95354 29.692C9.14354 35.3286 14.9369 34.7886 20.9435 34.7886C26.7385 34.7886 32.7135 35.392 34.9352 29.692C35.8435 27.342 35.7102 24.3653 35.7102 20.0186C35.7102 14.2486 36.0285 10.5236 33.2302 7.72696C30.3969 4.89363 26.5652 5.24863 20.9402 5.24863H20.9469ZM19.6235 7.9103C32.2469 7.8903 33.8535 6.48696 32.9669 25.982C32.6519 32.877 27.4019 32.1203 20.9485 32.1203C9.18188 32.1203 8.84354 31.7836 8.84354 20.012C8.84354 8.10363 9.77688 7.91696 19.6235 7.90696V7.9103ZM28.8302 10.362C27.8519 10.362 27.0585 11.1553 27.0585 12.1336C27.0585 13.112 27.8519 13.9053 28.8302 13.9053C29.8085 13.9053 30.6019 13.112 30.6019 12.1336C30.6019 11.1553 29.8085 10.362 28.8302 10.362ZM20.9469 12.4336C16.7585 12.4336 13.3635 15.8303 13.3635 20.0186C13.3635 24.207 16.7585 27.602 20.9469 27.602C25.1352 27.602 28.5285 24.207 28.5285 20.0186C28.5285 15.8303 25.1352 12.4336 20.9469 12.4336ZM20.9469 15.0953C27.4552 15.0953 27.4635 24.942 20.9469 24.942C14.4402 24.942 14.4302 15.0953 20.9469 15.0953Z" fill="white"/>
</g>
<defs>
<linearGradient id="paint0_linear" x1="2.57671" y1="37.4451" x2="39.7525" y2="5.26995" gradientUnits="userSpaceOnUse">
<stop stop-color="#FFDD55"/>
<stop offset="0.5" stop-color="#FF543E"/>
<stop offset="1" stop-color="#C837AB"/>
</linearGradient>
<clipPath id="clip0">
<rect width="40" height="40" fill="white"/>
</clipPath>
</defs>
</svg>
