<svg width="40" height="40" viewBox="0 0 40 40" fill="none" xmlns="http://www.w3.org/2000/svg">
<path d="M20.0256 16C22.2424 15.9928 24.008 14.2134 24 11.9922C23.9911 9.77097 22.2226 8.00169 20.0049 8C17.7687 7.99789 15.9828 9.79884 16.0001 12.0403C16.0166 14.2531 17.802 16.0093 20.0256 16Z" fill="url(#paint0_linear)"/>
<path d="M37.8723 0H2.12766C0.952766 0 0 0.95234 0 2.12766V37.8723C0 39.0477 0.952766 40 2.12766 40H37.8723C39.0477 40 40 39.0477 40 37.8723V2.12766C40 0.95234 39.0477 0 37.8723 0ZM20.034 3.73021C24.5868 3.7417 28.2421 7.46681 28.2196 12.0715C28.1953 16.5694 24.4804 20.2153 19.9349 20.2C15.4345 20.1847 11.7443 16.454 11.7698 11.9464C11.7966 7.38936 15.4894 3.7166 20.034 3.73021ZM29.2566 23.4349C28.2498 24.4694 27.0379 25.2166 25.6915 25.7396C24.4187 26.2315 23.0243 26.4809 21.6438 26.646C21.8523 26.8732 21.9506 26.9834 22.08 27.1149C23.954 28.9979 25.8357 30.8732 27.7034 32.7617C28.3391 33.4047 28.4736 34.2026 28.1226 34.9511C27.7391 35.7702 26.8817 36.3077 26.04 36.2498C25.5072 36.2123 25.0919 35.9472 24.7234 35.5766C23.3089 34.1532 21.8677 32.7566 20.483 31.3081C20.08 30.886 19.886 30.9647 19.5294 31.3319C18.1068 32.7966 16.6621 34.2387 15.2081 35.6723C14.5549 36.3166 13.7783 36.4319 13.0196 36.0647C12.2145 35.6745 11.703 34.8528 11.7426 34.026C11.7698 33.4677 12.0447 33.0413 12.4281 32.6583C14.2817 30.8068 16.1311 28.9506 17.9813 27.0957C18.1043 26.9732 18.2183 26.8417 18.3966 26.6511C15.8736 26.3877 13.5987 25.7672 11.6519 24.2438C11.4106 24.0545 11.1609 23.8715 10.9396 23.6596C10.0877 22.8409 10.0021 21.9043 10.6766 20.9379C11.2528 20.1115 12.2221 19.8894 13.2285 20.3638C13.4238 20.4553 13.6094 20.5706 13.7872 20.6936C17.4162 23.1872 22.4021 23.2566 26.0451 20.8068C26.4055 20.5315 26.7915 20.3034 27.2391 20.1902C28.1094 19.9668 28.9187 20.2855 29.386 21.0464C29.9209 21.9132 29.9136 22.7609 29.2566 23.4349Z" fill="url(#paint1_linear)"/>
<defs>
<linearGradient id="paint0_linear" x1="20" y1="8" x2="20" y2="16" gradientUnits="userSpaceOnUse">
<stop stop-color="#F58220"/>
<stop offset="1" stop-color="#FF8013"/>
</linearGradient>
<linearGradient id="paint1_linear" x1="32.9787" y1="-30.2128" x2="16.8085" y2="48.5106" gradientUnits="userSpaceOnUse">
<stop stop-color="#FFB06C"/>
<stop offset="1" stop-color="#FF8013"/>
</linearGradient>
</defs>
</svg>
