<svg width="40" height="40" viewBox="0 0 40 40" fill="none" xmlns="http://www.w3.org/2000/svg">
<g clip-path="url(#clip0)">
<path d="M37.4511 0H2.55451C1.14318 0 0 1.14318 0 2.55169V37.4483C0 38.8568 1.14318 40 2.55451 40H37.4483C38.8568 40 40 38.8568 40 37.4483V2.55169C40.0028 1.14036 38.8596 0 37.4511 0ZM33.1804 24.3737C33.9115 25.1189 35.4978 26.3693 35.2099 27.6424C34.9446 28.811 33.2002 28.3847 31.5066 28.4525C29.5731 28.5343 28.4271 28.5767 27.2641 27.6424C26.7165 27.1992 26.3947 26.6742 25.8697 26.0871C25.3927 25.5564 24.7915 24.6052 23.9729 24.6419C22.5023 24.7153 22.9624 26.7645 22.4402 28.1617C14.2658 29.4489 10.983 24.3991 8.08694 19.499C6.68407 17.1251 4.6574 12.0274 4.6574 12.0274L10.4382 12.0076C10.4382 12.0076 12.2927 15.3807 12.7839 16.2501C13.2016 16.9896 13.6617 17.5767 14.1359 18.2372C14.5339 18.7848 15.1634 19.8575 15.8521 19.77C16.9727 19.626 17.1759 15.2791 16.4815 13.8226C16.2049 13.2327 15.5416 13.0266 14.8557 12.8262C15.0871 11.3641 21.3394 11.0592 22.3499 12.1939C23.8177 13.8424 21.3337 18.432 23.3434 19.77C26.1661 18.2909 28.5767 12.0979 28.5767 12.0979L35.3454 12.1403C35.3454 12.1403 34.2869 15.488 33.1776 16.9727C32.5312 17.8421 30.386 19.7784 30.4707 21.2152C30.5384 22.3527 32.2828 23.4592 33.1804 24.3737Z" fill="url(#paint0_linear)"/>
</g>
<defs>
<linearGradient id="paint0_linear" x1="43.1579" y1="-24.5614" x2="11.2281" y2="56.1403" gradientUnits="userSpaceOnUse">
<stop stop-color="#64ACFF"/>
<stop offset="0.541667" stop-color="#3B96FE"/>
<stop offset="1" stop-color="#1883FE"/>
</linearGradient>
<clipPath id="clip0">
<rect width="40" height="40" fill="white"/>
</clipPath>
</defs>
</svg>
