<svg width="14" height="18" viewBox="0 0 14 18" fill="none" xmlns="http://www.w3.org/2000/svg">
<path d="M13.9953 9.01412C13.9962 9.314 13.8335 9.60463 13.5355 9.83554L3.54068 17.5363C3.20137 17.7984 2.7138 17.9633 2.18522 17.9946C1.65664 18.0259 1.13035 17.921 0.722131 17.7032C0.313908 17.4853 0.0571929 17.1723 0.00845857 16.8329C-0.0402757 16.4935 0.122963 16.1556 0.462264 15.8935L9.41764 9.01412L0.7821 2.13473C0.616054 2.00344 0.492054 1.85238 0.417229 1.69023C0.342405 1.52808 0.318229 1.35803 0.346093 1.18986C0.373957 1.02169 0.45331 0.858713 0.579592 0.710297C0.705875 0.561882 0.876597 0.430954 1.08194 0.325037C1.28748 0.207499 1.52861 0.118479 1.79022 0.0635547C2.05183 0.00863261 2.32829 -0.0110093 2.60228 0.00585931C2.87626 0.0227279 3.14187 0.0757426 3.38246 0.161587C3.62305 0.247429 3.83343 0.364248 4.00044 0.504724L13.6554 8.20553C13.9063 8.44308 14.026 8.72777 13.9953 9.01412Z" fill="#E7E7E7"/>
</svg>
