<svg width="77" height="25" viewBox="0 0 77 25" fill="none" xmlns="http://www.w3.org/2000/svg">
<path d="M28.2329 23.5611L32.144 1.56104H38.2551L34.4662 23.5611H28.2329Z" fill="#3C58BF"/>
<path d="M28.2329 23.5611L33.244 1.56104H38.2551L34.4662 23.5611H28.2329Z" fill="#293688"/>
<path d="M56.5911 1.80541C55.3689 1.31652 53.4133 0.827637 50.9689 0.827637C44.8578 0.827637 40.4578 3.88319 40.4578 8.28319C40.4578 11.5832 43.5133 13.2943 45.9578 14.3943C48.4022 15.4943 49.1356 16.2276 49.1356 17.2054C49.1356 18.6721 47.18 19.4054 45.4689 19.4054C43.0244 19.4054 41.68 19.0388 39.6022 18.1832L38.7467 17.8165L37.8911 22.8276C39.3578 23.4388 42.0467 24.0499 44.8578 24.0499C51.3356 24.0499 55.6133 20.9943 55.6133 16.3499C55.6133 13.7832 54.0244 11.8276 50.3578 10.2387C48.1578 9.13875 46.8133 8.52764 46.8133 7.42764C46.8133 6.44986 47.9133 5.47208 50.3578 5.47208C52.4356 5.47208 53.9022 5.83875 55.0022 6.32764L55.6133 6.57208L56.5911 1.80541Z" fill="#3C58BF"/>
<path d="M56.5911 1.80541C55.3689 1.31652 53.4133 0.827637 50.9689 0.827637C44.8578 0.827637 41.5578 3.88319 41.5578 8.28319C41.5578 11.5832 43.5133 13.2943 45.9578 14.3943C48.4022 15.4943 49.1356 16.2276 49.1356 17.2054C49.1356 18.6721 47.18 19.4054 45.4689 19.4054C43.0244 19.4054 41.68 19.0388 39.6022 18.1832L38.7467 17.8165L37.8911 22.8276C39.3578 23.4388 42.0467 24.0499 44.8578 24.0499C51.3356 24.0499 55.6133 20.9943 55.6133 16.3499C55.6133 13.7832 54.0244 11.8276 50.3578 10.2387C48.1578 9.13875 46.8133 8.52764 46.8133 7.42764C46.8133 6.44986 47.9133 5.47208 50.3578 5.47208C52.4356 5.47208 53.9022 5.83875 55.0022 6.32764L55.6133 6.57208L56.5911 1.80541Z" fill="#293688"/>
<path d="M67.101 1.56104C65.6344 1.56104 64.5344 1.68326 63.9233 3.14993L54.7566 23.5611H61.3566L62.5788 19.8944H70.401L71.1344 23.5611H77.001L71.8677 1.56104H67.101ZM64.2899 16.2277C64.6566 15.1277 66.7344 9.74993 66.7344 9.74993C66.7344 9.74993 67.2233 8.40549 67.5899 7.54993L67.9566 9.62771C67.9566 9.62771 69.1788 15.1277 69.4233 16.3499H64.2899V16.2277Z" fill="#3C58BF"/>
<path d="M68.5677 1.56104C67.101 1.56104 66.001 1.68326 65.3899 3.14993L54.7566 23.5611H61.3566L62.5788 19.8944H70.401L71.1344 23.5611H77.001L71.8677 1.56104H68.5677ZM64.2899 16.2277C64.7788 15.0055 66.7344 9.74993 66.7344 9.74993C66.7344 9.74993 67.2233 8.40549 67.5899 7.54993L67.9566 9.62771C67.9566 9.62771 69.1788 15.1277 69.4233 16.3499H64.2899V16.2277Z" fill="#293688"/>
<path d="M16.988 16.9614L16.3768 13.7836C15.2768 10.1169 11.7324 6.08359 7.82129 4.12804L13.3213 23.6836H19.9213L29.8213 1.68359H23.2213L16.988 16.9614Z" fill="#3C58BF"/>
<path d="M16.988 16.9614L16.3768 13.7836C15.2768 10.1169 11.7324 6.08359 7.82129 4.12804L13.3213 23.6836H19.9213L29.8213 1.68359H24.4435L16.988 16.9614Z" fill="#293688"/>
<path d="M0 1.56104L1.1 1.80548C8.92222 3.63882 14.3 8.28327 16.3778 13.7833L14.1778 3.39437C13.8111 1.9277 12.7111 1.56104 11.3667 1.56104H0Z" fill="#FFBC00"/>
<path d="M0 1.56104C7.82222 3.39437 14.3 8.16104 16.3778 13.661L14.3 4.98326C13.9333 3.51659 12.7111 2.66104 11.3667 2.66104L0 1.56104Z" fill="#F7981D"/>
<path d="M0 1.56104C7.82222 3.39437 14.3 8.16104 16.3778 13.661L14.9111 8.89437C14.5444 7.4277 14.0556 5.96104 12.3444 5.34993L0 1.56104Z" fill="#ED7C00"/>
<path d="M23.0999 16.2276L18.9443 12.072L16.9888 16.7165L16.4999 13.6609C15.3999 9.99426 11.8554 5.96093 7.94434 4.00537L13.4443 23.5609H20.0443L23.0999 16.2276Z" fill="#051244"/>
<path d="M34.465 23.5609L29.2095 18.1831L28.2317 23.5609H34.465Z" fill="#051244"/>
<path d="M48.5208 15.9829C49.0097 16.4718 49.2541 16.8385 49.1319 17.3274C49.1319 18.794 47.1764 19.5274 45.4652 19.5274C43.0208 19.5274 41.6763 19.1607 39.5986 18.3051L38.743 17.9385L37.8875 22.9496C39.3541 23.5607 42.043 24.1718 44.8541 24.1718C48.7652 24.1718 51.943 23.0718 53.7764 21.1162L48.5208 15.9829Z" fill="#051244"/>
<path d="M55.6106 23.5609H61.355L62.5773 19.8942H70.3995L71.1328 23.5609H76.9995L74.9217 14.6387L67.5884 7.5498L67.955 9.50536C67.955 9.50536 69.1773 15.0054 69.4217 16.2276H64.2884C64.7773 15.0054 66.7328 9.7498 66.7328 9.7498C66.7328 9.7498 67.2217 8.40536 67.5884 7.5498" fill="#051244"/>
</svg>
